<?xml version="1.0" encoding="utf-8"?>
<!-- Generator: Adobe Illustrator 18.0.0, SVG Export Plug-In . SVG Version: 6.00 Build 0)  -->
<!DOCTYPE svg PUBLIC "-//W3C//DTD SVG 1.1//EN" "http://www.w3.org/Graphics/SVG/1.1/DTD/svg11.dtd">
<svg version="1.1" id="图层_1" xmlns="http://www.w3.org/2000/svg" xmlns:xlink="http://www.w3.org/1999/xlink" x="0px" y="0px"
	 viewBox="0 0 1000 1000" style="enable-background:new 0 0 1000 1000;" xml:space="preserve">
<style type="text/css">
	
		.st0{fill-rule:evenodd;clip-rule:evenodd;fill:none;stroke:#000000;stroke-width:50;stroke-linecap:round;stroke-linejoin:round;stroke-miterlimit:10;}
</style>
<g>
	<path d="M501,901c-102.2,0-199.6-38.3-274.3-107.9c-74.3-69.2-119.5-163-127.1-263.9c-1-13.8,9.3-25.8,23-26.8
		c13.8-1,25.8,9.3,26.8,23C163.2,708,317.6,851,501,851c194.4,0,352.5-158.1,352.5-352.5S695.3,146,501,146
		c-138.4,0-264.6,81.6-321.6,207.8c-5.7,12.6-20.5,18.2-33.1,12.5c-12.6-5.7-18.2-20.5-12.5-33.1c31.4-69.7,81.9-128.9,145.9-171.1
		C345.4,118.9,421.9,96,501,96c54.3,0,107,10.6,156.7,31.6c47.9,20.3,91,49.3,127.9,86.3s66,80,86.3,127.9
		c21,49.6,31.6,102.4,31.6,156.7s-10.6,107-31.6,156.7c-20.3,47.9-49.3,91-86.3,127.9s-80,66-127.9,86.3
		C608,890.4,555.3,901,501,901z"/>
</g>
<g>
	<path d="M342.6,376H142.9c-13.8,0-25-11.2-25-25V131.8c0-13.8,11.2-25,25-25s25,11.2,25,25V326h174.7c13.8,0,25,11.2,25,25
		S356.5,376,342.6,376z"/>
</g>
</svg>
