<?xml version="1.0" encoding="utf-8"?>
<!-- Generator: Adobe Illustrator 18.0.0, SVG Export Plug-In . SVG Version: 6.00 Build 0)  -->
<!DOCTYPE svg PUBLIC "-//W3C//DTD SVG 1.1//EN" "http://www.w3.org/Graphics/SVG/1.1/DTD/svg11.dtd">
<svg version="1.1" id="图层_1" xmlns="http://www.w3.org/2000/svg" xmlns:xlink="http://www.w3.org/1999/xlink" x="0px" y="0px"
	 viewBox="0 0 1000 1000" style="enable-background:new 0 0 1000 1000;" xml:space="preserve">
<style type="text/css">
	.st0{fill:#020202;}
</style>
<g>
	<path d="M811.6,291.3H188.4c-13.8,0-25-11.2-25-25s11.2-25,25-25h623.1c13.8,0,25,11.2,25,25S825.4,291.3,811.6,291.3z"/>
</g>
<g>
	<path d="M811.6,533.2H188.4c-13.8,0-25-11.2-25-25c0-13.8,11.2-25,25-25h623.1c13.8,0,25,11.2,25,25
		C836.6,522.1,825.4,533.2,811.6,533.2z"/>
</g>
<g>
	<path d="M811.6,758.7H188.4c-13.8,0-25-11.2-25-25s11.2-25,25-25h623.1c13.8,0,25,11.2,25,25S825.4,758.7,811.6,758.7z"/>
</g>
</svg>
