<?xml version="1.0" encoding="utf-8"?>
<!-- Generator: Adobe Illustrator 18.0.0, SVG Export Plug-In . SVG Version: 6.00 Build 0)  -->
<!DOCTYPE svg PUBLIC "-//W3C//DTD SVG 1.1//EN" "http://www.w3.org/Graphics/SVG/1.1/DTD/svg11.dtd">
<svg version="1.1" id="图层_1" xmlns="http://www.w3.org/2000/svg" xmlns:xlink="http://www.w3.org/1999/xlink" x="0px" y="0px"
	 viewBox="0 0 1024 1024" style="enable-background:new 0 0 1024 1024;" xml:space="preserve">
<style type="text/css">
	.st0{fill:#9B9B9B;}
</style>
<path class="st0" d="M511.001,67.519C265.521,67.519,66.52,266.52,66.52,512s199.001,444.481,444.481,444.481
	S955.482,757.48,955.482,512S756.481,67.519,511.001,67.519z M797.964,335.733L432.079,739.781
	c-7.292,8.054-17.634,12.616-28.439,12.616c-0.603,0-1.205-0.016-1.811-0.044c-11.457-0.54-22.072-6.177-28.935-15.367
	L221.737,534.615c-12.682-16.978-9.2-41.024,7.782-53.705c16.978-12.685,41.024-9.197,53.705,7.782l123.262,165.022L741.08,284.22
	c14.215-15.707,38.491-16.91,54.199-2.686C810.986,295.758,812.191,320.025,797.964,335.733z"/>
</svg>
