<?xml version="1.0" encoding="utf-8"?>
<!-- Generator: Adobe Illustrator 18.0.0, SVG Export Plug-In . SVG Version: 6.00 Build 0)  -->
<!DOCTYPE svg PUBLIC "-//W3C//DTD SVG 1.1//EN" "http://www.w3.org/Graphics/SVG/1.1/DTD/svg11.dtd">
<svg version="1.1" id="图层_1" xmlns="http://www.w3.org/2000/svg" xmlns:xlink="http://www.w3.org/1999/xlink" x="0px" y="0px"
	 viewBox="0 0 1000 1000" style="enable-background:new 0 0 1000 1000;" xml:space="preserve">
<style type="text/css">
	
		.st0{fill-rule:evenodd;clip-rule:evenodd;fill:none;stroke:#000000;stroke-width:50;stroke-linecap:round;stroke-linejoin:round;stroke-miterlimit:10;}
</style>
<g>
	<path d="M833.8,866c-6.5,0-13.1-2.6-18-7.6l-653.5-676c-9.6-9.9-9.3-25.8,0.6-35.4c9.9-9.6,25.8-9.3,35.4,0.6l653.5,676
		c9.6,9.9,9.3,25.8-0.6,35.4C846.3,863.7,840,866,833.8,866z"/>
</g>
<g>
	<path d="M169,854.8c-6.5,0-13.1-2.6-18-7.6c-9.6-9.9-9.3-25.8,0.6-35.4l676-653.5c9.9-9.6,25.8-9.3,35.4,0.6
		c9.6,9.9,9.3,25.8-0.6,35.4l-676,653.5C181.5,852.4,175.3,854.8,169,854.8z"/>
</g>
</svg>
