<?xml version="1.0" encoding="utf-8"?>
<!-- Generator: Adobe Illustrator 18.0.0, SVG Export Plug-In . SVG Version: 6.00 Build 0)  -->
<!DOCTYPE svg PUBLIC "-//W3C//DTD SVG 1.1//EN" "http://www.w3.org/Graphics/SVG/1.1/DTD/svg11.dtd">
<svg version="1.1" id="图层_1" xmlns="http://www.w3.org/2000/svg" xmlns:xlink="http://www.w3.org/1999/xlink" x="0px" y="0px"
	 viewBox="0 0 1000 1000" style="enable-background:new 0 0 1000 1000;" xml:space="preserve">
<style type="text/css">
	
		.st0{fill-rule:evenodd;clip-rule:evenodd;fill:none;stroke:#000000;stroke-width:50;stroke-linecap:round;stroke-linejoin:round;stroke-miterlimit:10;}
</style>
<g>
	<path d="M513.9,930.7c-56.9,0-112.1-11.1-164.1-33.1c-50.2-21.2-95.3-51.6-134-90.3c-38.7-38.7-69.1-83.8-90.3-134
		c-22-52-33.1-107.2-33.1-164.1s11.1-112.1,33.1-164.1c21.2-50.2,51.6-95.3,90.3-134c38.7-38.7,83.8-69.1,134-90.3
		c52-22,107.2-33.1,164.1-33.1S626,98.9,678,120.9c50.2,21.2,95.3,51.6,134,90.3c38.7,38.7,69.1,83.8,90.3,134
		c22,52,33.1,107.2,33.1,164.1s-11.1,112.1-33.1,164.1c-21.2,50.2-51.6,95.3-90.3,134c-38.7,38.7-83.8,69.1-134,90.3
		C626,919.6,570.8,930.7,513.9,930.7z M513.9,137.8c-204.8,0-371.5,166.6-371.5,371.5s166.6,371.5,371.5,371.5
		c204.8,0,371.5-166.6,371.5-371.5S718.7,137.8,513.9,137.8z"/>
</g>
<g>
	<path class="st0" d="M513.9,509.2"/>
</g>
<g>
	<path d="M772.9,534.2h-518c-13.8,0-25-11.2-25-25c0-13.8,11.2-25,25-25h518c13.8,0,25,11.2,25,25
		C797.9,523,786.7,534.2,772.9,534.2z"/>
</g>
</svg>
