<?xml version="1.0" encoding="utf-8"?>
<!-- Generator: Adobe Illustrator 18.0.0, SVG Export Plug-In . SVG Version: 6.00 Build 0)  -->
<!DOCTYPE svg PUBLIC "-//W3C//DTD SVG 1.1//EN" "http://www.w3.org/Graphics/SVG/1.1/DTD/svg11.dtd">
<svg version="1.1" xmlns="http://www.w3.org/2000/svg" xmlns:xlink="http://www.w3.org/1999/xlink" x="0px" y="0px"
	 viewBox="0 0 1000 1000" enable-background="new 0 0 1000 1000" xml:space="preserve">
<g id="图层_1">
	<g>
		<path d="M515.9,529.3c-61.6,0-119.4-24-163-67.5c-43.5-43.5-67.5-101.4-67.5-163s24-119.4,67.5-163c43.5-43.5,101.4-67.5,163-67.5
			s119.4,24,163,67.5c43.5,43.5,67.5,101.4,67.5,163s-24,119.4-67.5,163C635.3,505.3,577.4,529.3,515.9,529.3z M515.9,118.4
			c-99.5,0-180.5,81-180.5,180.5s81,180.5,180.5,180.5s180.5-81,180.5-180.5S615.4,118.4,515.9,118.4z"/>
	</g>
	<g>
		<path d="M104.4,876.2l2.7-27.5c6.8-69.3,31.3-136.1,71.1-193.3c38.9-56,91.6-101.8,152.4-132.4c12.3-6.2,27.4-1.3,33.6,11.1
			c6.2,12.3,1.3,27.4-11.1,33.6c-102.5,51.7-173,147-192.5,258.4l707.8-2.8c-31-169.4-178.4-294-353.6-294c-13.8,0-25-11.2-25-25
			c0-13.8,11.2-25,25-25c101.8,0,199.4,37.6,274.9,105.9c74.9,67.8,121.9,160.3,132.5,260.3L925,873L104.4,876.2z"/>
	</g>
	<g>
		<path d="M520,804.3c-11.3,0-22-4.2-30.3-11.9L453.6,759c-10.9-10.1-16.1-24.9-13.8-39.6l16.1-104.1c3.4-21.9,21.9-37.8,44.1-37.8
			h35.4c22,0,40.9,16.4,44.1,38.1L595,721c2,13.7-2.3,27.3-11.9,37.3l-30.8,32.3C543.9,799.3,532.2,804.3,520,804.3z M489.6,724.3
			l30.2,27.9l25.3-26.6l-14.4-98.1h-26.1L489.6,724.3z"/>
	</g>
</g>
<g id="图层_2">
</g>
</svg>
