<?xml version="1.0" encoding="utf-8"?>
<!-- Generator: Adobe Illustrator 18.0.0, SVG Export Plug-In . SVG Version: 6.00 Build 0)  -->
<!DOCTYPE svg PUBLIC "-//W3C//DTD SVG 1.1//EN" "http://www.w3.org/Graphics/SVG/1.1/DTD/svg11.dtd">
<svg version="1.1" xmlns="http://www.w3.org/2000/svg" xmlns:xlink="http://www.w3.org/1999/xlink" x="0px" y="0px"
	 viewBox="0 0 1000 1000" enable-background="new 0 0 1000 1000" xml:space="preserve">
<g id="图层_1">
	<g>
		<g>
			<path fill-rule="evenodd" clip-rule="evenodd" d="M424.4,745H271.6c-11.5,0-21-9.4-21-21V220.4c0-11.5,9.4-21,21-21h398.7
				c11.5,0,21,9.4,21,21v178.4c0,11.5,9.4,21,21,21c11.5,0,21-9.4,21-21V220.4c0-34.6-28.3-62.9-62.9-62.9H271.6
				c-34.6,0-62.9,28.3-62.9,62.9V724c0,34.6,28.3,62.9,62.9,62.9h152.8c11.5,0,21-9.4,21-21C445.4,754.5,435.9,745,424.4,745
				L424.4,745z"/>
		</g>
		<g>
			<path fill-rule="evenodd" clip-rule="evenodd" d="M622.7,272.9H307.9c-11.5,0-21,9.4-21,21c0,11.5,9.4,21,21,21h314.7
				c11.5,0,21-9.4,21-21C643.6,282.3,634.2,272.9,622.7,272.9L622.7,272.9z M622.7,377.8H307.9c-11.5,0-21,9.4-21,21
				c0,11.5,9.4,21,21,21h314.7c11.5,0,21-9.4,21-21C643.6,387.3,634.2,377.8,622.7,377.8L622.7,377.8z M500.3,482.7H307.9
				c-11.5,0-21,9.4-21,21c0,11.5,9.4,21,21,21h192.3c11.5,0,21-9.4,21-21C521.2,492.2,511.8,482.7,500.3,482.7L500.3,482.7z
				 M755.9,806.2H551.7c-10.5,0-19.2,8.7-19.2,19.2c0,10.5,8.7,19.2,19.2,19.2h204.2c10.5,0,18.9-8.4,19.2-19.6
				C775.1,814.6,766.4,806.2,755.9,806.2L755.9,806.2z M750.7,655.5h-40.2c-5.2-12.2,1.4-35.3,18.2-62.6l0.3-0.7v-0.4
				c0.4-0.3,0.7-1,0.7-1c7.3-14,14.7-31.5,14.7-54.2c0-50.7-39.9-90.9-90.9-91.3h-0.7c-51.1,0.3-90.6,40.6-90.6,91.3
				c0,22.7,7.3,39.9,14.7,53.9c0.4,1,0.7,1.7,1,2.1l0.4,0.4c16.8,27.3,23.4,50,18.2,62.6h-40.2c-22.7,0-40.9,18.9-40.9,42.3v67.5
				c0,9.4,7.7,17.1,17.1,17.1h242.3c9.4,0,16.8-7.7,16.8-16.8v-67.8C791.6,674.4,773.4,655.5,750.7,655.5L750.7,655.5z M753.8,743.6
				H553.1v-45.8c0-2.1,1.4-3.5,3.1-3.5h57l2.4-2.1c29.4-24.1,27.6-66.4-4.9-119.3c-6.6-12.9-10.5-23.1-10.5-36.4
				c0-29.7,23.1-52.5,53.2-52.8c30.4,0.3,53.2,23.1,53.2,52.8c0,13.6-3.8,23.8-10.5,36.4c-32.5,52.8-33.9,95.1-4.9,119.3l2.4,2.1
				h56.7c1.7,0,3.1,1.4,3.1,3.5v45.8H753.8L753.8,743.6z M443.3,587.6H307.9c-11.5,0-21,9.4-21,21c0,11.5,9.4,21,21,21h135.3
				c11.5,0,21-9.4,21-21C464.2,597.1,454.8,587.6,443.3,587.6L443.3,587.6z"/>
		</g>
	</g>
</g>
<g id="图层_2">
</g>
</svg>
