<?xml version="1.0" encoding="utf-8"?>
<!-- Generator: Adobe Illustrator 18.0.0, SVG Export Plug-In . SVG Version: 6.00 Build 0)  -->
<!DOCTYPE svg PUBLIC "-//W3C//DTD SVG 1.1//EN" "http://www.w3.org/Graphics/SVG/1.1/DTD/svg11.dtd">
<svg version="1.1" id="图层_1" xmlns="http://www.w3.org/2000/svg" xmlns:xlink="http://www.w3.org/1999/xlink" x="0px" y="0px"
	 viewBox="0 0 1024 1024" style="enable-background:new 0 0 1024 1024;" xml:space="preserve">
<path d="M513,482.6c-106,0-192.8-86.7-192.8-192.8c0-106,86.7-192.8,192.8-192.8c106,0,192.7,86.7,192.7,192.8
	C710.6,395.9,619,482.6,513,482.6L513,482.6z M513,135.7c-81.9,0-154.2,67.5-154.2,149.4c0,81.9,67.5,154.2,154.2,154.2
	c81.9,0,154.2-67.5,154.2-154.2C667.2,203.2,599.7,135.7,513,135.7L513,135.7z M513,911.5c-240.9,0-303.6-106-303.6-110.8
	c0-4.8-4.8-4.8-4.8-9.6c0-110.8,62.6-216.8,159-269.9c9.6-9.6,24.1-4.8,28.9,4.8c4.8,9.6,0,24.1-9.6,28.9
	C301,603.1,248,689.9,243.1,781.4c14.5,19.3,77.1,86.7,265,86.7s255.4-67.5,269.9-86.7c0-96.4-53-183.1-139.7-226.5
	c-4.8-4.8-9.6-19.3-4.8-28.9c4.8-9.6,19.3-14.5,28.9-9.6c96.4,53,159,159,159,269.9c0,4.8,0,9.6-4.8,9.6
	C816.6,805.5,749.1,911.5,513,911.5L513,911.5z M513,911.5"/>
<path d="M514.5,596.8c-86.7,0-149.4-43.4-149.4-43.4c-9.6-4.8-14.5-19.3-4.8-28.9c4.8-9.6,19.3-9.6,28.9-4.8c0,0,53,38.6,125.3,38.6
	c72.3,0,125.3-38.6,125.3-38.6c9.6-4.8,24.1-4.8,28.9,4.8c4.8,9.6,4.8,24.1-4.8,28.9C663.9,553.4,601.2,596.8,514.5,596.8
	L514.5,596.8z M514.5,596.8"/>
<path d="M365.4,552.1c0,0-77.1,67.5-86.7,91.6c-9.6,24.1-57.8,134.9-43.4,154.2c9.6,19.3,149.4,101.2,265,86.7
	c115.7-14.5,279.5-43.4,289.1-96.4c9.6-53-72.3-231.3-125.3-240.9c-53-9.6-139.7,28.9-159,28.9C481.1,581,365.4,552.1,365.4,552.1
	L365.4,552.1z M365.4,552.1"/>
<path d="M512,460.9c96.4,0,173.5-77.1,173.5-173.5c0-96.4-77.1-173.5-173.5-173.5c-96.4,0-173.5,77.1-173.5,173.5
	C338.5,379,415.6,460.9,512,460.9L512,460.9z M512,460.9"/>
</svg>
