<?xml version="1.0" encoding="utf-8"?>
<!-- Generator: Adobe Illustrator 18.0.0, SVG Export Plug-In . SVG Version: 6.00 Build 0)  -->
<!DOCTYPE svg PUBLIC "-//W3C//DTD SVG 1.1//EN" "http://www.w3.org/Graphics/SVG/1.1/DTD/svg11.dtd">
<svg version="1.1" id="图层_1" xmlns="http://www.w3.org/2000/svg" xmlns:xlink="http://www.w3.org/1999/xlink" x="0px" y="0px"
	 viewBox="0 0 1024 1024" style="enable-background:new 0 0 1024 1024;" xml:space="preserve">
<path d="M512.9,250.3c-26,0-49.2-24.4-49.2-51.9c0-27.5,23.2-51.9,49.2-51.9c28.9,0,49.2,24.4,49.2,51.9
	C562,231.9,538.9,250.3,512.9,250.3L512.9,250.3z M648.6,170.8c-14.4,0-23.2-12.2-23.2-24.4c0-24.4-20.3-45.8-46.2-45.8H443.3
	c-26,0-46.2,21.3-46.2,45.8c0,15.3-11.6,24.4-23.2,24.4h-17.3c-14.4,0-23.2,12.2-23.2,24.4v73.3c0,15.3,11.6,24.4,23.2,24.4H663
	c14.4,0,23.2-12.2,23.2-24.4v-73.3c0-15.3-11.6-24.4-23.2-24.4H648.6z M749.9,485.4L492.6,803.3c-5.7,9.1-23.2,6.2-31.8-3.1
	L287.3,650.6c-2.9-3.1-5.7-9.1,0-12.2l31.8-39.7c2.9-3.1,8.7-3.1,11.6,0l135.9,116.1c5.7,3.1,11.6,3.1,17.3-3.1l213.8-275
	c2.9-6.2,8.6-6.2,11.6-3.1l40.5,36.6C755.6,473.2,758.5,476.3,749.9,485.4L749.9,485.4z M749.9,225.9v107
	c0,15.3-11.6,24.4-23.2,24.4L296,360.4c-14.4,0-23.2-12.2-23.2-24.4V229c0-15.3-11.6-24.4-23.2-24.4h-14.4
	c-37.6-3.1-54.9,21.3-54.9,55v595.8c0,27.5,26,64.2,60.8,64.2h540.5c28.9,0,60.8-33.6,60.8-64.2V256.3c0-27.5-20.3-55-52.1-55h-14.4
	C761.5,201.4,749.9,210.6,749.9,225.9L749.9,225.9z M749.9,225.9"/>
</svg>
