<?xml version="1.0" encoding="utf-8"?>
<!-- Generator: Adobe Illustrator 18.0.0, SVG Export Plug-In . SVG Version: 6.00 Build 0)  -->
<!DOCTYPE svg PUBLIC "-//W3C//DTD SVG 1.1//EN" "http://www.w3.org/Graphics/SVG/1.1/DTD/svg11.dtd">
<svg version="1.1" id="图层_1" xmlns="http://www.w3.org/2000/svg" xmlns:xlink="http://www.w3.org/1999/xlink" x="0px" y="0px"
	 viewBox="0 0 1024 1024" style="enable-background:new 0 0 1024 1024;" xml:space="preserve">
<g>
	<g>
		<path d="M236.1,192.4c15.8,0,29.1,5.3,40.1,16c10.9,10.7,16.4,23.9,16.4,39.6v43c0,15.8-5.5,29.1-16.4,40
			c-11,10.9-24.3,16.4-40.1,16.4h-44.6c-15.1,0-28.2-5.5-39.2-16.4c-11-10.9-16.5-24.3-16.5-40v-43c0-15.8,5.5-29,16.4-39.6
			c11-10.7,24-16,39.2-16L236.1,192.4z M814.5,192.4c15.2,0,28.2,5.3,39.2,16c11,10.7,16.4,23.9,16.4,39.6v43
			c0,15.8-5.5,29.1-16.4,40c-10.9,10.9-24,16.4-39.2,16.4h-360c-15.8,0-29.1-5.5-40.1-16.4c-10.9-10.9-16.4-24.3-16.4-40v-43
			c0-15.8,5.5-29,16.4-39.6c10.9-10.7,24.3-16,40.1-16L814.5,192.4z M236.1,454.7c15.8,0,29.1,5.5,40.1,16.4
			c10.9,10.9,16.4,24.3,16.4,40v43c0,15.1-5.5,28.2-16.4,39.2c-11,10.9-24.3,16.4-40.1,16.4h-44.6c-15.1,0-28.2-5.5-39.2-16.4
			c-10.9-11-16.4-24.1-16.4-39.2v-43c0-15.8,5.5-29.1,16.4-40c11-10.9,24-16.4,39.2-16.4H236.1z M814.5,454.7
			c15.2,0,28.2,5.5,39.2,16.4c11,10.9,16.4,24.3,16.4,40v43c0,15.1-5.5,28.2-16.4,39.2c-10.9,11-24,16.4-39.2,16.4h-360
			c-15.8,0-29.1-5.5-40.1-16.4c-10.9-11-16.4-24.1-16.4-39.2v-43c0-15.8,5.5-29.1,16.4-40c10.9-10.9,24.3-16.4,40.1-16.4H814.5z
			 M236.1,717.7c15.8,0,29.1,5.5,40.1,16.4c10.9,10.9,16.4,24,16.4,39.2v43c0,15.8-5.5,29.1-16.4,40.1c-11,10.9-24.3,16.4-40.1,16.4
			h-44.6c-15.1,0-28.2-5.5-39.2-16.4c-10.9-11-16.4-24.3-16.4-40.1v-43c0-15.1,5.5-28.2,16.4-39.2c10.9-11,24-16.4,39.2-16.4H236.1z
			 M814.5,717.7c15.2,0,28.2,5.5,39.2,16.4c11,10.9,16.4,24,16.4,39.2v43c0,15.8-5.5,29.1-16.4,40.1c-10.9,10.9-24,16.4-39.2,16.4
			h-360c-15.8,0-29.1-5.5-40.1-16.4c-10.9-11-16.4-24.3-16.4-40.1v-43c0-15.1,5.5-28.2,16.4-39.2c10.9-11,24.3-16.4,40.1-16.4H814.5
			z M814.5,717.7"/>
	</g>
</g>
</svg>
