<?xml version="1.0" encoding="utf-8"?>
<!-- Generator: Adobe Illustrator 18.0.0, SVG Export Plug-In . SVG Version: 6.00 Build 0)  -->
<!DOCTYPE svg PUBLIC "-//W3C//DTD SVG 1.1//EN" "http://www.w3.org/Graphics/SVG/1.1/DTD/svg11.dtd">
<svg version="1.1" id="图层_1" xmlns="http://www.w3.org/2000/svg" xmlns:xlink="http://www.w3.org/1999/xlink" x="0px" y="0px"
	 viewBox="0 0 1024 1024" style="enable-background:new 0 0 1024 1024;" xml:space="preserve">
<style type="text/css">
	.st0{clip-path:url(#SVGID_2_);}
</style>
<g>
	<g>
		<defs>
			<rect id="SVGID_1_" x="107.1" y="176.4" width="791.8" height="686.9"/>
		</defs>
		<clipPath id="SVGID_2_">
			<use xlink:href="#SVGID_1_"  style="overflow:visible;"/>
		</clipPath>
		<path class="st0" d="M409.1,460.6C409.1,460.6,409.1,460.6,409.1,460.6c0,0.6,0,1,0,1.5V460.6z M409.1,460.6"/>
		<path class="st0" d="M812.3,283.5c-5.1-1-10.3-1.6-15.4-1.6H648.1v-39.8c0-36.3-29.4-65.8-65.8-65.8H423.6
			c-36.3,0-65.8,29.4-65.8,65.8v39.8h-149c-5.1,0-10.3,0.6-15.4,1.6c-44.8,9-86.3,55.1-86.3,100.2v60.5c2.1,10.7,8.9,13.7,25,13.7
			h110c19.2,0,23.6-2.1,23.6-20.6v-4.6c0-18.5,14.8-33.6,32.9-33.6h55.2c18.1,0,32.9,15.1,32.9,33.6v4.9c0,18.4,4.6,20.3,22.3,20.3
			v3.3c0-0.2,0.1-0.4,0.1-0.6c0-0.9-0.1-1.8-0.1-2.7c0.1,0,0.2,0,0.4,0h190.8c16.8,0,18.4-2.3,18.4-17.8v-7.4
			c0-18.5,14.8-33.6,32.9-33.6H706c18.1,0,32.9,15.1,32.9,33.6v5.9c0,16.6,5.5,19.3,21.6,19.3h116.9c13,0,18.9-2.7,21-11.4v-4.4
			c0.1,1.3,0.1,2.6,0.1,3.8c0,0,0-0.1,0-0.1v-62.2C898.7,338.6,857.1,292.5,812.3,283.5L812.3,283.5z M408.3,253
			c0-14.4,11.7-26.2,26.2-26.2h136.9c14.4,0,26.2,11.7,26.2,26.2v28.9H408.3V253z M408.3,253"/>
	</g>
	<path d="M879.2,527.6H761.4c-17.7,0-22.5,3-22.5,18.1v7.1c0,18.5-14.8,33.6-32.9,33.6h-54.5c-18.1,0-32.9-15.1-32.9-33.6v-6.7
		c0-14.5-4.1-18.5-18.7-18.5H410.2c-18.7,0-23.6,4.1-23.6,20.9v4.3c0,18.5-14.8,33.6-32.9,33.6h-55.2c-18.1,0-32.9-15.1-32.9-33.6
		v-2.7c0-19.7-4.8-22.5-22.7-22.5H131.5c-15.8,0-22.3,3.1-24.4,14.3v218.7c0,50.2,51.6,101.8,101.8,101.8h587.9
		c50.2,0,101.8-51.6,101.8-101.8V539.3C896.3,530.7,890.1,527.6,879.2,527.6L879.2,527.6z M879.2,527.6"/>
	<path d="M350.1,524.5v-59.7c0-18.1-11.1-23.3-24.6-23.3c-13.5,0-24.6,5.2-24.6,23.3v59.7c0,18.1,11.1,23.3,24.6,23.3
		C339.1,547.8,350.1,542.6,350.1,524.5L350.1,524.5z M350.1,524.5"/>
	<path d="M703.7,524.5v-59.7c0-18.1-11.1-23.3-24.6-23.3c-13.5,0-24.6,5.2-24.6,23.3v59.7c0,18.1,11.1,23.3,24.6,23.3
		C692.7,547.8,703.7,542.6,703.7,524.5L703.7,524.5z M703.7,524.5"/>
</g>
</svg>
