<?xml version="1.0" encoding="utf-8"?>
<!-- Generator: Adobe Illustrator 18.0.0, SVG Export Plug-In . SVG Version: 6.00 Build 0)  -->
<!DOCTYPE svg PUBLIC "-//W3C//DTD SVG 1.1//EN" "http://www.w3.org/Graphics/SVG/1.1/DTD/svg11.dtd">
<svg version="1.1" id="图层_1" xmlns="http://www.w3.org/2000/svg" xmlns:xlink="http://www.w3.org/1999/xlink" x="0px" y="0px"
	 viewBox="0 0 1024 1024" style="enable-background:new 0 0 1024 1024;" xml:space="preserve">
<path d="M768.5,227.4h-73.8v121.1H293.2V227.4h-72.5c-15.1,0-27.4,12.3-27.4,27.4v562.7c0,15.1,12.3,27.4,27.4,27.4h547.7
	c15.1,0,27.4-12.3,27.4-27.4V254.8C795.9,239.6,783.6,227.4,768.5,227.4L768.5,227.4z M707.6,462.1L470,753c1.1,3.6-4.3,4.1-7.9,1.2
	L289.3,612.7c-3.6-2.9-4.2-8.3-1.2-11.9l28.8-35.3c2.9-3.6,8.3-4.1,11.9-1.2L460,672.8L663.2,424c2.9-5,8.3-5.6,11.9-2.6l33.5,27.4
	C712.2,451.7,714.3,454.4,707.6,462.1L707.6,462.1z M597.4,192.1v-22.2c0-22.6-18.3-41-41-41h-124c-22.6,0-41,18.3-41,41v22.2h-48.2
	v110.4h301.3V192.1H597.4z M494.7,261.8c-24.9,0-45.2-20.2-45.2-45.2c0-25,20.2-45.2,45.2-45.2c24.9,0,45.2,20.2,45.2,45.2
	C539.9,245.3,519.6,261.8,494.7,261.8L494.7,261.8z M494.7,261.8"/>
</svg>
