<?xml version="1.0" encoding="utf-8"?>
<!-- Generator: Adobe Illustrator 18.0.0, SVG Export Plug-In . SVG Version: 6.00 Build 0)  -->
<!DOCTYPE svg PUBLIC "-//W3C//DTD SVG 1.1//EN" "http://www.w3.org/Graphics/SVG/1.1/DTD/svg11.dtd">
<svg version="1.1" id="图层_1" xmlns="http://www.w3.org/2000/svg" xmlns:xlink="http://www.w3.org/1999/xlink" x="0px" y="0px"
	 viewBox="0 0 1024 1024" style="enable-background:new 0 0 1024 1024;" xml:space="preserve">
<path d="M827.9,601c0,0-53.5,0.2-113.3,0.2c-44.5,0-75.5-11.9-75.5-68.6c0-52.5,30-71.6,78.7-71.7h110.1c11.8,0,21.3,8.2,21.3,20
	v98.7C849.2,591.4,839.7,601,827.9,601L827.9,601z M696.8,502.3c-16.7,0-30.3,13.6-30.3,30.3c0,16.7,13.6,30.3,30.3,30.3
	c16.7,0,30.3-13.6,30.3-30.3C727.1,515.9,713.6,502.3,696.8,502.3L696.8,502.3z M636.4,613.8c6,0,148.5,0.9,187.2,0.9v45.6
	c0,58.9-43.5,106.7-102.5,106.7H315.6c-58.9,0-106.7-47.8-106.7-106.7V404.9c0-58.9,47.8-111,106.7-111h405.5
	c59,0,102.5,52,102.5,111v43.4H635.8C593.1,448.2,593.1,613.8,636.4,613.8L636.4,613.8z M583.7,194.7l-184.1,74.6H295.6l300.8-139.9
	l109.4,139.9h-67.4L583.7,194.7z M583.7,194.7"/>
</svg>
