<?xml version="1.0" encoding="utf-8"?>
<!-- Generator: Adobe Illustrator 18.0.0, SVG Export Plug-In . SVG Version: 6.00 Build 0)  -->
<!DOCTYPE svg PUBLIC "-//W3C//DTD SVG 1.1//EN" "http://www.w3.org/Graphics/SVG/1.1/DTD/svg11.dtd">
<svg version="1.1" id="图层_1" xmlns="http://www.w3.org/2000/svg" xmlns:xlink="http://www.w3.org/1999/xlink" x="0px" y="0px"
	 viewBox="0 0 1024 1024" style="enable-background:new 0 0 1024 1024;" xml:space="preserve">
<style type="text/css">
	.st0{fill:#666666;}
</style>
<g>
	<path class="st0" d="M405.7,625.6v-118c0-11.8-11.8-23.6-26.4-23.6V304.1l8.8-44.2l-8.8-88.5h-49.9l-11.8,88.5l8.8,44.2V484
		c-14.7,0-26.4,8.9-26.4,23.6v118c-11.8,8.9-20.6,20.6-20.6,38.3v179.9c0,23.6,23.5,44.2,49.9,44.2h49.9c26.4,0,49.9-20.6,49.9-44.2
		V664C429.2,646.2,420.4,634.5,405.7,625.6L405.7,625.6z"/>
	<path class="st0" d="M766.9,304.1c0-44.2-20.6-103.2-47-132.7c0,0-17.6,0-17.6,17.7v94.4c0,11.8-8.8,23.6-20.6,23.6H552.6
		c-11.8,0-20.6-8.9-20.6-23.6V189c0-17.7-20.6-17.7-20.6-17.7c-29.4,29.5-47,88.5-47,132.7c0,61.9,35.2,91.4,85.1,103.3v413
		c0,35.4,26.4,61.9,58.7,61.9h8.8c32.3,0,58.7-29.5,58.7-61.9v-413C731.7,398.5,766.9,369,766.9,304.1L766.9,304.1z"/>
</g>
</svg>
