<?xml version="1.0" encoding="utf-8"?>
<!-- Generator: Adobe Illustrator 18.0.0, SVG Export Plug-In . SVG Version: 6.00 Build 0)  -->
<!DOCTYPE svg PUBLIC "-//W3C//DTD SVG 1.1//EN" "http://www.w3.org/Graphics/SVG/1.1/DTD/svg11.dtd">
<svg version="1.1" xmlns="http://www.w3.org/2000/svg" xmlns:xlink="http://www.w3.org/1999/xlink" x="0px" y="0px"
	 viewBox="0 0 1000 1000" enable-background="new 0 0 1000 1000" xml:space="preserve">
<g id="图层_1">
	<g>
		<path fill="#040000" d="M489.1,499.1c-104.2,0-189-84.8-189-189s84.8-189,189-189s189,84.8,189,189S593.4,499.1,489.1,499.1z
			 M489.1,171.2c-76.6,0-139,62.4-139,139c0,76.6,62.4,139,139,139s139-62.4,139-139C628.1,233.5,565.8,171.2,489.1,171.2z"/>
	</g>
	<g>
		<path fill="#040000" d="M163.6,881.8c-12.5,0-23.3-9.4-24.8-22.1c-1.7-14.7-2.6-29.5-2.6-44c0-49.1,9.6-96.7,28.6-141.6
			c18.3-43.3,44.5-82.2,77.9-115.6c33.4-33.4,72.3-59.6,115.6-78c44.9-19,92.5-28.6,141.7-28.6c49.1,0,96.7,9.6,141.6,28.6
			c43.3,18.3,82.2,44.5,115.6,77.9c33.4,33.4,59.6,72.3,78,115.6c19,44.9,28.6,92.5,28.6,141.7c0,11.7-0.6,23.8-1.8,37
			c-1.3,13.7-13.5,23.8-27.2,22.6c-13.7-1.3-23.9-13.5-22.6-27.2c1.1-11.6,1.6-22.2,1.6-32.4c0-173-140.8-313.8-313.8-313.8
			S186.2,642.7,186.2,815.7c0,12.5,0.8,25.4,2.3,38.1c1.6,13.7-8.2,26.1-21.9,27.8C165.6,881.8,164.6,881.8,163.6,881.8z"/>
	</g>
	<g>
		<path fill="none" stroke="#040000" stroke-width="50" stroke-miterlimit="10" d="M301.6,764.3"/>
	</g>
</g>
<g id="图层_2">
</g>
</svg>
