<?xml version="1.0" encoding="utf-8"?>
<!-- Generator: Adobe Illustrator 18.0.0, SVG Export Plug-In . SVG Version: 6.00 Build 0)  -->
<!DOCTYPE svg PUBLIC "-//W3C//DTD SVG 1.1//EN" "http://www.w3.org/Graphics/SVG/1.1/DTD/svg11.dtd">
<svg version="1.1" xmlns="http://www.w3.org/2000/svg" xmlns:xlink="http://www.w3.org/1999/xlink" x="0px" y="0px"
	 viewBox="0 0 1000 1000" enable-background="new 0 0 1000 1000" xml:space="preserve">
<g id="图层_1">
	<g>
		<g>
			<path fill="#040000" d="M723.5,616.4c-4.8,0-9.7-1.4-14-4.3c-11.4-7.7-14.4-23.3-6.7-34.7c27.7-40.9,42.3-88.8,42.3-138.4
				c0-136.6-111.1-247.7-247.7-247.7S249.7,302.4,249.7,439c0,13.8-11.2,25-25,25c-13.8,0-25-11.2-25-25c0-79.5,31-154.3,87.2-210.5
				s131-87.2,210.5-87.2s154.3,31,210.5,87.2s87.2,131,87.2,210.5c0,59.7-17.6,117.2-50.9,166.4
				C739.4,612.6,731.5,616.4,723.5,616.4z"/>
		</g>
		<g>
			<path fill="#040000" d="M590.5,857.6C590.5,857.6,590.5,857.6,590.5,857.6c-67.3,0-119-1.5-153.7-4.6
				c-55.4-4.8-111-28.8-165.4-71.1c-45.2-35.2-80.9-76.7-102.8-105.3c-35.5-46.2-31.3-96.7-17-125.9c10.4-21.1,27.3-33.7,45.2-33.7
				c1.6,0,3.2,0.1,4.7,0.3c21.7,2.7,44.5,23.7,89.9,67.2c22.6,21.6,48.2,46.1,74.4,67.6c29.5,24.1,102.7,38,200.8,38
				c0.8,0,1.5,0,2.3,0c-8.5-14.9-16.9-31-20.4-42.3c-5.1-16-1.2-27.9,3-35c9.9-16.9,29.1-20.7,35.4-21.9c0.1,0,0.3-0.1,0.4-0.1
				c2.1-0.5,4.2-0.8,6.3-0.8c5.3,0,6.6,0,47.2,15.4c20.9,7.9,49,18.8,79.1,30.6c29.5,11.6,57.4,22.6,78.6,31.2
				c37.1,15,40.5,16.6,44.1,20c5.2,4.6,8.4,11.2,8.4,18.7v122.3c0,13.4-10.6,24.5-24.1,25C825.6,853.2,704.3,857.6,590.5,857.6z
				 M198.5,569.2c-2.4,3.5-5.3,9.9-6.7,18.8c-1.8,11.5-2.1,34.3,16.3,58.3c42.1,54.7,128.2,147.9,232.9,157
				c33.3,2.9,83.5,4.4,149.4,4.4c82.7,0,169.5-2.4,210.5-3.7v-81.8c-40.8-16.9-159.5-63.4-200.2-78.4c8.1,16.7,23.2,41.7,32.9,56.6
				c4.8,7.5,5.4,16.9,1.4,24.9c-4,7.9-11.9,13.2-20.8,13.7c-0.8,0-19.6,1.2-47.6,1.2c-78.6,0-182.7-8.5-232.4-49.3
				c-27.7-22.7-54-47.9-77.3-70.1c-15.1-14.5-29.4-28.2-41.2-38.3C207.2,575.2,201.8,571.3,198.5,569.2z M586.2,591
				c-0.1,0-0.3,0.1-0.5,0.1C585.9,591.1,586,591.1,586.2,591z"/>
		</g>
		<g>
			<path fill="#040000" d="M500.4,378.2c-6.3,0-12.5-2.3-17.3-7l-79.8-76.8c-9.9-9.6-10.3-25.4-0.7-35.3c9.6-9.9,25.4-10.3,35.3-0.7
				l62.9,60.5l63.6-58.3c10.2-9.3,26-8.7,35.3,1.5c9.3,10.2,8.7,26-1.5,35.3l-80.9,74.2C512.6,376.1,506.5,378.2,500.4,378.2z"/>
		</g>
		<g>
			<path fill="#040000" d="M501.9,603c-13.8,0-25-11.2-25-25V364.4c0-13.8,11.2-25,25-25c13.8,0,25,11.2,25,25V578
				C526.9,591.9,515.7,603,501.9,603z"/>
		</g>
		<g>
			<path fill="#040000" d="M581.3,433.3H414.5c-13.8,0-25-11.2-25-25s11.2-25,25-25h166.8c13.8,0,25,11.2,25,25
				S595.1,433.3,581.3,433.3z"/>
		</g>
		<g>
			<path fill="#040000" d="M581.3,512.6H414.5c-13.8,0-25-11.2-25-25c0-13.8,11.2-25,25-25h166.8c13.8,0,25,11.2,25,25
				C606.3,501.4,595.1,512.6,581.3,512.6z"/>
		</g>
	</g>
</g>
<g id="图层_2">
</g>
</svg>
