<?xml version="1.0" encoding="utf-8"?>
<!-- Generator: Adobe Illustrator 18.0.0, SVG Export Plug-In . SVG Version: 6.00 Build 0)  -->
<!DOCTYPE svg PUBLIC "-//W3C//DTD SVG 1.1//EN" "http://www.w3.org/Graphics/SVG/1.1/DTD/svg11.dtd">
<svg version="1.1" id="图层_1" xmlns="http://www.w3.org/2000/svg" xmlns:xlink="http://www.w3.org/1999/xlink" x="0px" y="0px"
	 viewBox="0 0 1024 1024" style="enable-background:new 0 0 1024 1024;" xml:space="preserve">
<path d="M797.5,221.4C639.7,63.6,384.8,63.6,227,221.4C69.2,379.2,68.4,634.9,226.3,792.7c157.8,157.8,414.3,157.8,572.1,0
	C956.2,634.9,955.4,379.2,797.5,221.4L797.5,221.4z M661.8,484.8v79.8H552.5v32.1h109.3v78.6H552.5v85.2h-87.8v-85.2H355.8v-78.6
	h108.9v-32.1H355.8v-79.8H422L321.1,288h100L486,422.8c8.3,17.4,14.1,28,17.6,41.2c4.2-14.3,9.9-25,17.6-41.2L587.3,288h99.9
	L585.1,484.8H661.8z M661.8,484.8"/>
</svg>
