<?xml version="1.0" encoding="utf-8"?>
<!-- Generator: Adobe Illustrator 18.0.0, SVG Export Plug-In . SVG Version: 6.00 Build 0)  -->
<!DOCTYPE svg PUBLIC "-//W3C//DTD SVG 1.1//EN" "http://www.w3.org/Graphics/SVG/1.1/DTD/svg11.dtd">
<svg version="1.1" xmlns="http://www.w3.org/2000/svg" xmlns:xlink="http://www.w3.org/1999/xlink" x="0px" y="0px"
	 viewBox="0 0 1000 1000" enable-background="new 0 0 1000 1000" xml:space="preserve">
<g id="图层_1">
	<g>
		<path fill="#040000" d="M426.7,486.5H160.2c-21.7,0-39.3-17.6-39.3-39.3V180.6c0-21.7,17.6-39.3,39.3-39.3h266.5
			c21.7,0,39.3,17.6,39.3,39.3v266.5C466.1,468.9,448.4,486.5,426.7,486.5z M170.9,436.5h245.2V191.3H170.9V436.5z"/>
	</g>
	<g>
		<path fill="#040000" d="M824.6,486.5H558c-21.7,0-39.3-17.6-39.3-39.3V180.6c0-21.7,17.6-39.3,39.3-39.3h266.5
			c21.7,0,39.3,17.6,39.3,39.3v266.5C863.9,468.9,846.3,486.5,824.6,486.5z M568.7,436.5h245.2V191.3H568.7V436.5z"/>
	</g>
	<g>
		<path fill="#040000" d="M426.7,881.8H160.2c-21.7,0-39.3-17.6-39.3-39.3V576c0-21.7,17.6-39.3,39.3-39.3h266.5
			c21.7,0,39.3,17.6,39.3,39.3v266.5C466.1,864.2,448.4,881.8,426.7,881.8z M170.9,831.8h245.2V586.6H170.9V831.8z"/>
	</g>
	<g>
		<path fill="#040000" d="M824.6,881.8H558c-21.7,0-39.3-17.6-39.3-39.3V576c0-21.7,17.6-39.3,39.3-39.3h266.5
			c21.7,0,39.3,17.6,39.3,39.3v266.5C863.9,864.2,846.3,881.8,824.6,881.8z M568.7,831.8h245.2V586.6H568.7V831.8z"/>
	</g>
</g>
<g id="图层_2">
</g>
</svg>
