<?xml version="1.0" encoding="utf-8"?>
<!-- Generator: Adobe Illustrator 18.0.0, SVG Export Plug-In . SVG Version: 6.00 Build 0)  -->
<!DOCTYPE svg PUBLIC "-//W3C//DTD SVG 1.1//EN" "http://www.w3.org/Graphics/SVG/1.1/DTD/svg11.dtd">
<svg version="1.1" id="图层_1" xmlns="http://www.w3.org/2000/svg" xmlns:xlink="http://www.w3.org/1999/xlink" x="0px" y="0px"
	 viewBox="0 0 1024 1024" style="enable-background:new 0 0 1024 1024;" xml:space="preserve">
<g>
	<g>
		<path d="M703.378,276.336c0.148-55.504-21.909-108.765-61.256-147.913c-39.15-39.347-92.409-61.403-147.914-61.257
			c-55.508-0.147-108.768,21.91-147.917,61.257c-39.347,39.149-61.403,92.409-61.252,147.913c0,43.308,13.135,84.88,37.963,120.199
			c4.516,6.425,12.104,9.96,19.923,9.288c7.824-0.676,14.696-5.459,18.044-12.559c3.296-7.163,2.485-15.544-2.118-21.943
			c-35.294-50.526-39.597-116.474-11.164-171.155c28.433-54.682,84.891-89.039,146.522-89.164
			c91.268,0.106,165.227,74.064,165.333,165.333c-0.106,91.267-74.065,165.229-165.333,165.336
			c-88.551-0.168-173.508,35.008-236.02,97.726c-62.717,62.511-97.894,147.469-97.729,236.019c0,12.119,9.824,21.943,21.943,21.943
			c12.118,0,21.942-9.824,21.942-21.943c0.184-160.035,129.874-289.725,289.913-289.912c55.503,0.15,108.764-21.906,147.913-61.253
			C681.49,385.089,703.529,331.832,703.378,276.336L703.378,276.336z M533.567,549.938c0,12.125,9.816,21.942,21.943,21.942h291.354
			c11.557-0.767,20.537-10.363,20.537-21.942c0-11.583-8.98-21.18-20.537-21.943H555.461
			C543.373,528.047,533.596,537.848,533.567,549.938L533.567,549.938z M846.864,639.678H555.509
			c-11.553,0.763-20.537,10.359-20.537,21.943c0,11.578,8.984,21.175,20.537,21.938h291.354
			c11.557-0.763,20.537-10.36,20.537-21.938C867.4,650.038,858.42,640.441,846.864,639.678L846.864,639.678z M846.864,751.309
			H555.509c-11.553,0.768-20.537,10.363-20.537,21.943c0,11.582,8.984,21.179,20.537,21.942h291.354
			c11.557-0.763,20.537-10.359,20.537-21.942C867.4,761.673,858.42,752.077,846.864,751.309L846.864,751.309z M846.864,751.309"/>
	</g>
</g>
</svg>
