<?xml version="1.0" encoding="utf-8"?>
<!-- Generator: Adobe Illustrator 18.0.0, SVG Export Plug-In . SVG Version: 6.00 Build 0)  -->
<!DOCTYPE svg PUBLIC "-//W3C//DTD SVG 1.1//EN" "http://www.w3.org/Graphics/SVG/1.1/DTD/svg11.dtd">
<svg version="1.1" id="图层_1" xmlns="http://www.w3.org/2000/svg" xmlns:xlink="http://www.w3.org/1999/xlink" x="0px" y="0px"
	 viewBox="0 0 1024 1024" style="enable-background:new 0 0 1024 1024;" xml:space="preserve">
<style type="text/css">
	.st0{clip-path:url(#SVGID_2_);fill:#211613;}
	.st1{fill:#211613;}
</style>
<g>
	<g>
		<defs>
			<rect id="SVGID_1_" x="129.561" y="215.464" width="800.637" height="722.992"/>
		</defs>
		<clipPath id="SVGID_2_">
			<use xlink:href="#SVGID_1_"  style="overflow:visible;"/>
		</clipPath>
		<path class="st0" d="M587.416,884.766h-62.629v-91.985h78.284c-3.916-17.613-5.87-37.185-5.87-54.798H227.31
			c-25.441,0-45.012-21.528-45.012-46.969V319.166c0-25.441,19.571-46.97,45.012-46.97h567.555c25.444,0,45.016,21.529,45.016,46.97
			v166.353c17.613,0,37.185,1.958,52.839,5.87V317.208c0-56.755-43.054-101.767-97.855-101.767H227.31
			c-52.843,0-97.855,45.012-97.855,101.767v371.849c0,56.755,45.012,101.771,97.855,101.771h240.722v91.981h-62.628
			c-15.655,0-27.399,11.743-27.399,27.399c0,15.659,11.743,27.399,27.399,27.399h180.054c15.655,0,27.399-11.74,27.399-27.399
			C612.856,894.552,603.071,884.766,587.416,884.766L587.416,884.766z M587.416,884.766"/>
	</g>
	<path class="st1" d="M757.681,781.041c-60.671,0-111.552-50.885-111.552-111.556c0-60.671,50.881-111.552,111.552-111.552v-54.801
		c-91.982,0-166.353,74.372-166.353,166.353c0,91.985,74.371,166.354,166.353,166.354c91.985,0,166.353-74.368,166.353-166.354
		h-54.797C869.237,732.114,820.309,781.041,757.681,781.041L757.681,781.041z M757.681,781.041"/>
	<path class="st1" d="M812.478,493.347h-17.613v135.039h135.039v-17.613C929.904,544.232,877.065,493.347,812.478,493.347
		L812.478,493.347z M832.049,591.202v-58.713c29.357,7.827,50.885,29.357,58.713,58.713H832.049z M675.485,397.45L462.162,575.547
		l-95.898-93.94c-9.785-9.785-25.444-9.785-35.229,0c-9.785,9.783-9.785,25.442,0,35.227l111.556,109.598
		c3.912,3.912,11.74,7.828,17.613,7.828c5.869,0,11.743-1.958,15.655-5.874l230.936-191.794c9.785-7.828,11.743-23.484,3.915-33.269
		C702.884,389.622,687.225,387.664,675.485,397.45L675.485,397.45z M675.485,397.45"/>
</g>
</svg>
