<?xml version="1.0" encoding="utf-8"?>
<!-- Generator: Adobe Illustrator 18.0.0, SVG Export Plug-In . SVG Version: 6.00 Build 0)  -->
<!DOCTYPE svg PUBLIC "-//W3C//DTD SVG 1.1//EN" "http://www.w3.org/Graphics/SVG/1.1/DTD/svg11.dtd">
<svg version="1.1" id="图层_1" xmlns="http://www.w3.org/2000/svg" xmlns:xlink="http://www.w3.org/1999/xlink" x="0px" y="0px"
	 viewBox="0 0 1024 1024" style="enable-background:new 0 0 1024 1024;" xml:space="preserve">
<style type="text/css">
	.st0{clip-path:url(#SVGID_2_);}
</style>
<g>
	<g>
		<defs>
			<rect id="SVGID_1_" x="176.23" y="177.454" width="670.071" height="670.005"/>
		</defs>
		<clipPath id="SVGID_2_">
			<use xlink:href="#SVGID_1_"  style="overflow:visible;"/>
		</clipPath>
		<path class="st0" d="M837.877,714.293h-22.058c-3.677,0-6.684,3.011-6.684,6.684v58.822c0,14.373-16.71,31.418-31.418,31.418
			h-59.824c-3.677,0-6.684,3.007-6.684,6.684v22.058c0,3.677,3.008,6.684,6.684,6.684h59.824c36.765,0,66.512-29.743,66.512-66.508
			v-58.822C844.561,717.303,841.553,714.293,837.877,714.293L837.877,714.293z M303.468,179.215H242.64
			c-36.762,0-66.508,29.746-66.508,66.507v61.83c0,3.677,3.007,6.687,6.684,6.687h22.057c3.677,0,6.684-3.01,6.684-6.687v-61.83
			c0-14.369,16.713-31.414,31.417-31.414h60.829c3.674,0,6.684-3.007,6.684-6.684v-22.057
			C310.152,181.89,307.145,179.215,303.468,179.215L303.468,179.215z M778.723,177.879h-59.825c-3.677,0-6.684,3.008-6.684,6.684
			v22.058c0,3.677,3.007,6.684,6.684,6.684h59.825c14.369,0,31.414,16.713,31.414,31.417v61.83c0,3.677,3.011,6.684,6.687,6.684
			h22.058c3.677,0,6.684-3.007,6.684-6.684v-62.164C845.23,207.624,815.484,177.879,778.723,177.879L778.723,177.879z
			 M303.468,810.882H242.64c-14.37,0-31.414-16.71-31.414-31.418v-58.487c0-3.674-3.01-6.684-6.687-6.684h-21.723
			c-3.677,0-6.684,3.011-6.684,6.684v58.487c0,36.765,29.747,66.512,66.508,66.512h60.828c3.677,0,6.684-3.011,6.684-6.688v-22.057
			C310.152,813.889,307.145,810.882,303.468,810.882L303.468,810.882z M379.336,621.715
			c80.546-16.71,202.535-42.444,208.214-192.506v-2.006c0-17.045-8.02-32.419-21.056-43.784
			c-15.705-13.368-35.426-20.386-55.812-20.386c-20.722-0.335-40.439,7.353-55.812,21.056c-13.703,12.698-17.38,29.411-20.39,41.775
			c-11.027,50.133-48.794,74.866-115.637,75.532c-9.693,0-17.38,6.687-17.38,15.042v0.331c0,8.358,7.686,15.042,17.38,15.042h0.336
			c82.551-0.67,135.692-36.43,149.726-99.931c2.675-11.698,5.013-21.057,11.365-26.736c7.351-7.019,18.38-11.365,30.078-11.365
			h0.335c11.697,0,22.392,4.346,30.077,11.03c7.019,5.679,11.031,14.038,11.031,23.06v1.004
			c-4.678,127.002-102.603,147.389-181.478,164.099c-15.038,3.007-29.076,6.017-41.443,9.691
			c-7.019,2.006-12.032,7.689-12.032,14.372c0,1.671,0.336,3.342,1.002,5.013c2.341,6.017,9.025,10.026,16.713,10.026
			c2.003,0,4.008-0.335,6.014-1.001C351.596,627.733,364.964,624.725,379.336,621.715L379.336,621.715z M379.336,621.715"/>
	</g>
	<path d="M701.853,552.535c-31.417-8.024-59.492-19.051-58.822-61.498c0-9.356,0.666-15.706,1.336-22.39
		c1.671-13.371,2.007-26.404,1.671-39.772c-1.001-63.501-61.495-115.305-135.022-115.305c-67.178,0-119.649,39.102-133.686,99.931
		c-8.69,35.426-30.747,36.762-50.802,35.091h-1.671c-9.022,0-16.71,6.017-17.38,13.368v1.671c0,7.689,7.018,14.373,15.708,15.042
		c60.493,5.013,81.885-29.746,88.9-59.824c11.031-46.456,48.797-75.533,99.265-75.533c54.141,0,98.927,38.433,99.928,85.894v7.016
		c0,10.36-0.666,20.722-1.671,30.747c-1.001,7.689-1.336,15.708-1.336,23.397c-0.667,68.849,58.822,84.223,84.222,90.907
		c2.006,0.666,4.012,1.001,6.349,1.001c9.694,0,17.714-6.684,17.714-15.039C715.557,560.22,709.874,554.205,701.853,552.535
		L701.853,552.535z M701.853,552.535"/>
	<path d="M708.203,502.067c-1.671-1.001-8.69-5.683-7.019-19.051c2.341-19.385,3.677-51.469,3.677-52.805v-0.335
		c0-91.908-87.23-166.439-194.179-166.439c-79.21,0-151.735,42.444-180.812,105.945c-3.341,7.354-6.014,16.379-8.355,24.064
		c-1.002,3.676-2.006,7.353-3.342,11.03c-0.666,1.671-1.001,3.677-1.001,5.348c0,6.349,4.678,11.697,11.027,14.037
		c2.006,0.667,4.347,1.002,6.353,1.002c7.018,0.335,13.368-3.342,16.375-9.36c1.671-3.674,3.007-8.355,5.013-14.704
		c2.006-7.018,4.346-14.704,7.019-20.386c23.728-51.804,83.221-86.895,148.058-86.895c87.565,0,158.751,60.826,158.751,136.023
		c-0.667,16.713-2.006,33.758-3.677,50.468c-4.008,33.419,21.056,49.463,32.753,51.469c1.34,0.335,2.34,0.335,3.677,0.335
		c9.694,0,17.38-6.684,17.38-15.042C720.234,509.755,715.221,504.407,708.203,502.067L708.203,502.067z M708.203,502.067"/>
	<path d="M328.534,581.943l10.695-2.003c68.514-11.7,183.484-31.752,188.832-151.065v-1.671c0-8.355-8.02-15.042-17.714-15.042
		c-9.692,0-17.712,6.688-17.712,15.042v0.667c-4.346,95.252-94.583,110.961-160.76,122.323l-11.027,2.006
		c-8.024,1.336-14.038,7.354-14.038,14.704c0,1.005,0,2.006,0.335,3.008c1.671,6.687,8.69,12.032,17.38,12.032
		C326.196,582.278,327.532,581.943,328.534,581.943L328.534,581.943z M690.489,601.663c-17.712-3.677-35.091-8.689-52.136-15.374
		c-15.374-6.017-29.746-15.039-41.443-26.736c-3.342-3.01-8.023-4.681-12.367-4.346c-9.691,0-17.714,6.684-17.714,15.039
		c0,3.342,1.336,6.684,3.677,9.025c14.708,14.703,35.094,27.74,54.476,34.759c17.715,6.349,36.766,13.033,58.488,17.045
		c1.34,0.335,2.675,0.335,3.677,0.335c9.691-0.335,17.38-7.019,17.38-15.042C704.191,609.352,698.512,603.334,690.489,601.663
		L690.489,601.663z M672.777,650.126c-32.753-6.018-55.481-16.379-75.201-25.4c-19.717-9.024-37.096-16.713-56.817-16.713
		c-16.04,0-34.756,5.012-62.831,12.701c-30.078,8.355-71.187,19.385-128.003,29.412c-8.023,1.336-14.038,7.685-14.038,14.703
		c0,1.005,0,2.006,0.336,3.008c1.67,7.019,8.689,12.032,17.38,12.032c1.336,0,2.337,0,3.674-0.331
		c58.487-10.029,100.6-21.726,131.348-30.081c24.064-6.684,41.778-11.362,52.135-11.362c11.365,0,24.064,5.679,40.443,13.368
		c21.056,9.691,47.122,21.388,84.557,28.407c1.336,0.335,2.337,0.335,3.674,0.335c9.694-0.335,17.38-7.018,17.38-15.039
		C686.479,657.475,680.797,651.461,672.777,650.126L672.777,650.126z M672.777,650.126"/>
	<path d="M640.023,692.57c-13.037-3.008-28.075-9.025-42.779-14.704c-22.061-9.025-43.115-17.38-61.83-17.38
		c-13.371,0-36.766,5.679-73.196,14.704c-26.4,6.684-56.482,14.037-78.204,17.38c-9.025,0.669-16.044,7.354-16.044,15.039
		c0,8.355,8.023,15.038,17.714,15.038c1.336,0,3.008,0,4.344-0.331c23.397-3.342,54.479-11.365,81.884-18.049
		c25.4-6.349,54.142-13.368,63.502-13.368c10.692,0,29.076,7.354,46.787,14.372c16.043,6.35,32.419,13.033,48.462,16.71
		c1.336,0.335,3.008,0.666,4.679,0.666c9.694,0,17.714-6.684,17.714-15.038C653.057,700.258,647.374,694.241,640.023,692.57
		L640.023,692.57z M640.023,692.57"/>
	<path d="M594.234,729.335c-4.343-1.34-8.689-3.011-13.368-4.681c-15.039-5.68-31.748-12.032-53.81-12.032
		c-10.026,0-24.063,2.676-46.787,7.354c-16.379,3.342-34.759,7.019-48.462,8.355c-9.36,0.336-16.71,7.019-16.71,15.039
		c0,8.359,8.02,15.042,17.711,15.042c1.005,0,2.341,0,3.342-0.335c15.374-1.671,35.094-5.683,52.473-9.025
		c15.039-3.007,32.084-6.684,38.433-6.684c14.373,0,26.404,4.343,39.438,9.36c5.016,2.003,10.029,3.674,15.377,5.344
		c2.003,0.67,4.008,1.005,6.014,1.005c9.691,0,17.38-6.684,17.38-15.039C605.599,737.02,600.918,731.672,594.234,729.335
		L594.234,729.335z M594.234,729.335"/>
</g>
</svg>
