<?xml version="1.0" encoding="utf-8"?>
<!-- Generator: Adobe Illustrator 18.0.0, SVG Export Plug-In . SVG Version: 6.00 Build 0)  -->
<!DOCTYPE svg PUBLIC "-//W3C//DTD SVG 1.1//EN" "http://www.w3.org/Graphics/SVG/1.1/DTD/svg11.dtd">
<svg version="1.1" id="图层_1" xmlns="http://www.w3.org/2000/svg" xmlns:xlink="http://www.w3.org/1999/xlink" x="0px" y="0px"
	 viewBox="0 0 1024 1024" style="enable-background:new 0 0 1024 1024;" xml:space="preserve">
<style type="text/css">
	.st0{clip-path:url(#SVGID_2_);}
	.st1{clip-path:url(#SVGID_4_);}
</style>
<g>
	<g>
		<defs>
			<rect id="SVGID_1_" x="305.332" y="302.899" width="404.956" height="422.618"/>
		</defs>
		<clipPath id="SVGID_2_">
			<use xlink:href="#SVGID_1_"  style="overflow:visible;"/>
		</clipPath>
		<path class="st0" d="M569.344,302.946c-45.685,0-88.685,22.326-114.967,59.722l-7.631,10.786l21.618,15.213l7.585-10.786
			c21.381-30.379,56.282-48.513,93.395-48.513c62.925,0,114.12,51.197,114.12,114.121c0,62.926-51.195,114.12-114.12,114.12h-13.187
			v26.424h13.187c77.478,0,140.496-63.02,140.496-140.496C709.84,365.964,646.822,302.946,569.344,302.946L569.344,302.946z
			 M569.344,302.946"/>
		<path class="st0" d="M568.449,368.413c-7.299,0-13.187,5.936-13.187,13.189v69.282c0,7.3,5.887,13.187,13.187,13.187h61.794
			c7.299,0,13.187-5.933,13.187-13.187c0-7.253-5.887-13.189-13.187-13.189h-48.605v-56.093
			C581.638,374.3,575.751,368.413,568.449,368.413L568.449,368.413z M305.261,686.755v28.071c0,5.604,4.476,10.126,10.126,10.126
			h264.554c5.604,0,10.128-4.476,10.128-10.126v-28.071c0-56.144-35.938-105.549-89.819-126.887l-8.994-1.129l5.604-4.475
			c21.335-15.73,32.544-38.197,32.544-62.878c0-42.952-35.607-78.325-80.351-79.691v-0.046h-2.635v0.046
			c-44.792,1.366-80.351,36.738-80.351,79.691c0,24.681,11.209,47.147,32.544,62.878l5.604,4.475l-8.994,1.129
			C341.151,581.206,305.261,630.612,305.261,686.755L305.261,686.755z M387.45,490.258c0-31.18,26.845-56.99,60.145-57.13
			c33.298,0.094,60.145,25.95,60.145,57.13c0,32.215-26.707,57.979-59.911,57.13h-0.472
			C414.2,548.237,387.45,522.427,387.45,490.258L387.45,490.258z M447.595,573.387c64.995,0.095,116.944,49.925,116.944,111.72
			v17.379H330.648v-17.379C330.648,623.312,382.597,573.482,447.595,573.387L447.595,573.387z M447.595,573.387"/>
	</g>
</g>
<g>
	<defs>
		<rect id="SVGID_3_" x="178.162" y="181.999" width="662.786" height="662.721"/>
	</defs>
	<clipPath id="SVGID_4_">
		<use xlink:href="#SVGID_3_"  style="overflow:visible;"/>
	</clipPath>
	<path class="st1" d="M832.616,713.002h-21.818c-3.637,0-6.611,2.978-6.611,6.612v58.183c0,14.217-16.529,31.076-31.076,31.076
		h-59.173c-3.637,0-6.612,2.974-6.612,6.611v21.818c0,3.637,2.975,6.611,6.612,6.611h59.173c36.365,0,65.789-29.419,65.789-65.785
		v-58.183C839.227,715.98,836.252,713.002,832.616,713.002L832.616,713.002z M304.017,183.741H243.85
		c-36.362,0-65.785,29.422-65.785,65.784v61.158c0,3.637,2.975,6.614,6.612,6.614h21.817c3.637,0,6.612-2.977,6.612-6.614v-61.158
		c0-14.213,16.531-31.072,31.075-31.072h60.168c3.634,0,6.611-2.975,6.611-6.612v-21.817
		C310.629,186.387,307.654,183.741,304.017,183.741L304.017,183.741z M774.105,182.419h-59.174c-3.637,0-6.611,2.975-6.611,6.611
		v21.818c0,3.637,2.974,6.612,6.611,6.612h59.174c14.213,0,31.072,16.531,31.072,31.075v61.157c0,3.637,2.978,6.612,6.614,6.612
		h21.818c3.637,0,6.612-2.975,6.612-6.612v-61.489C839.889,211.842,810.467,182.419,774.105,182.419L774.105,182.419z
		 M304.017,808.541H243.85c-14.213,0-31.073-16.528-31.073-31.076v-57.852c0-3.634-2.977-6.612-6.614-6.612h-21.486
		c-3.637,0-6.612,2.978-6.612,6.612v57.852c0,36.365,29.423,65.788,65.785,65.788h60.167c3.637,0,6.612-2.978,6.612-6.615v-21.818
		C310.629,811.515,307.654,808.541,304.017,808.541L304.017,808.541z M379.06,621.431"/>
</g>
</svg>
