<?xml version="1.0" encoding="utf-8"?>
<!-- Generator: Adobe Illustrator 18.0.0, SVG Export Plug-In . SVG Version: 6.00 Build 0)  -->
<!DOCTYPE svg PUBLIC "-//W3C//DTD SVG 1.1//EN" "http://www.w3.org/Graphics/SVG/1.1/DTD/svg11.dtd">
<svg version="1.1" id="图层_1" xmlns="http://www.w3.org/2000/svg" xmlns:xlink="http://www.w3.org/1999/xlink" x="0px" y="0px"
	 viewBox="0 0 1024 1024" style="enable-background:new 0 0 1024 1024;" xml:space="preserve">
<g>
	<g>
		<path d="M178.638,819.789v-30.051h656.523v30.051H178.638z M178.638,740.973V642.08c0-32.73,26.474-59.298,59.111-59.298h538.3
			c32.635,0,59.112,26.568,59.112,59.298v98.893C835.162,739.986,178.638,741.21,178.638,740.973L178.638,740.973z M800.08,650.92
			c0-26.524-4.14-31.601-57.278-31.601H270.714c-53.328,0-57.465,0-57.465,31.601v56.429c0,0.096,586.83,0,586.83,0V650.92z
			 M646.073,396.23c-16.554,17.634-16.461,28.734,1.033,45.707c8.747,8.467,18.34,16.368,25.911,25.631
			c21.537,26.665,8.98,64.049-24.124,73.452c-5.221,1.507-10.957,2.164-16.461,2.21c-22.054,0.097-44.107,0.097-66.208,0.097
			H380.987c-19.373,0-34.844-7.057-44.484-22.574c-9.924-15.988-9.781-32.778,0.284-48.671c4.323-6.771,10.58-12.508,16.27-18.435
			c5.267-5.453,11.33-10.156,16.457-15.61c12.698-13.31,12.791-24.454,0.564-38.235c-6.864-7.803-14.341-15.187-21.115-23.041
			c-25.394-29.344-42.981-62.029-46.415-99.693c-5.407-60.005,14.157-112.627,62.169-154.151
			c40.818-35.267,87.139-53.608,137.504-53.608c21.49,0,43.684,3.34,66.585,10.11c76.935,22.854,123.49,73.033,139.197,145.637
			c11.144,51.492-2.116,98.8-35.551,141.265C664.269,376.669,655.192,386.542,646.073,396.23L646.073,396.23z M671.606,239.447
			c-12.887-59.629-31.321-81.589-75.805-106.606c-25.394-11.897-45.144-26.004-93.109-26.004c-41.194,0-78.862,16.74-112.296,45.754
			c-39.268,34.044-51.305,78.295-51.305,127.767c0,52.762,67.716,96.967,82.669,126.688c3.717,7.24,5.974,18.904-14.577,37.478
			c-10.627,9.686-29.814,27.464-34.047,46.931c0,12.51,2.586,17.214,58.455,17.214c19.844,0,160.122,0,178.179-0.096
			c4.467-0.047,15.661-1.317,21.021-3.853c20.597-10.864,5.5-32.355-14.483-50.788c-6.444-6.021-24.268-17.354-24.268-37.528
			c0-13.73,10.723-23.087,24.268-37.524c7.476-7.997,22.524-24.315,29.2-32.824C672.829,311.206,680.73,281.676,671.606,239.447
			L671.606,239.447z M671.606,239.447"/>
	</g>
</g>
</svg>
