<?xml version="1.0" encoding="utf-8"?>
<!-- Generator: Adobe Illustrator 18.0.0, SVG Export Plug-In . SVG Version: 6.00 Build 0)  -->
<!DOCTYPE svg PUBLIC "-//W3C//DTD SVG 1.1//EN" "http://www.w3.org/Graphics/SVG/1.1/DTD/svg11.dtd">
<svg version="1.1" id="图层_1" xmlns="http://www.w3.org/2000/svg" xmlns:xlink="http://www.w3.org/1999/xlink" x="0px" y="0px"
	 viewBox="0 0 1024 1024" style="enable-background:new 0 0 1024 1024;" xml:space="preserve">
<style type="text/css">
	.st0{fill:#3F3F3F;}
</style>
<g>
	<g>
		<path class="st0" d="M204.022,588.25c-18.471,0-31.665,15.833-31.665,31.669v171.527c0,18.471,13.194,31.665,31.665,31.665
			c18.471,0,31.665-13.194,31.665-31.665V619.919C238.329,601.445,222.493,588.25,204.022,588.25L204.022,588.25z M367.635,437.835
			c-18.474,0-31.669,15.833-31.669,31.665v321.945c0,18.471,15.833,31.665,31.669,31.665c18.471,0,31.665-15.833,31.665-31.665
			V469.501C399.3,453.668,386.106,437.835,367.635,437.835L367.635,437.835z M531.244,501.166
			c-18.471,0-31.665,15.835-31.665,31.668v258.612c0,18.471,15.833,31.665,31.665,31.665c15.833,0,31.669-15.833,31.669-31.665
			V532.834C562.913,517.002,547.077,501.166,531.244,501.166L531.244,501.166z M694.857,329.639
			c-18.474,0-31.669,15.833-31.669,31.668v430.139c0,18.471,15.836,31.665,31.669,31.665c15.832,0,31.665-15.833,31.665-31.665
			V361.307C726.522,345.472,713.327,329.639,694.857,329.639L694.857,329.639z M789.856,166.029c-2.638-2.642-5.277-5.28-7.915-5.28
			c-5.28-2.638-5.28-2.638-10.556-2.638l-121.391,7.918c-7.915,0-15.833,5.276-18.471,13.194
			c-2.638,7.915-2.638,15.833,2.638,21.109l31.669,42.224L525.968,356.028l-163.613-39.583L116.938,495.89
			c-7.915,5.277-10.553,21.112-5.276,29.026c5.276,7.918,13.194,7.918,18.471,7.918c5.28,0,7.918,0,13.194-2.638l229.584-168.889
			l166.251,39.584l250.694-205.834C797.774,189.777,797.774,176.582,789.856,166.029L789.856,166.029z M789.856,166.029"/>
	</g>
</g>
</svg>
