<?xml version="1.0" encoding="utf-8"?>
<!-- Generator: Adobe Illustrator 18.0.0, SVG Export Plug-In . SVG Version: 6.00 Build 0)  -->
<!DOCTYPE svg PUBLIC "-//W3C//DTD SVG 1.1//EN" "http://www.w3.org/Graphics/SVG/1.1/DTD/svg11.dtd">
<svg version="1.1" id="图层_1" xmlns="http://www.w3.org/2000/svg" xmlns:xlink="http://www.w3.org/1999/xlink" x="0px" y="0px"
	 viewBox="0 0 1024 1024" style="enable-background:new 0 0 1024 1024;" xml:space="preserve">
<style type="text/css">
	.st0{clip-path:url(#SVGID_2_);}
</style>
<g>
	<g>
		<defs>
			<rect id="SVGID_1_" x="172.466" y="207.048" width="681.667" height="682.579"/>
		</defs>
		<clipPath id="SVGID_2_">
			<use xlink:href="#SVGID_1_"  style="overflow:visible;"/>
		</clipPath>
		<path class="st0" d="M805.526,207.504H221.15c-26.851,0-48.684,21.833-48.684,48.684v340.798
			c0,26.851,21.833,48.684,48.684,48.684h267.844v38.566c-1.14,0.836-2.281,1.75-3.347,2.816L325.595,847.105
			c-9.509,9.509-9.509,24.949,0,34.458c4.717,4.717,10.954,7.15,17.194,7.15c6.237,0,12.473-2.354,17.19-7.15L488.92,752.625
			v110.681c0,13.464,10.875,24.343,24.34,24.343c13.465,0,24.344-10.879,24.344-24.343V645.67h267.844
			c26.855,0,48.684-21.833,48.684-48.684V256.188C854.21,229.259,832.376,207.504,805.526,207.504L805.526,207.504z
			 M805.526,596.986H221.15V256.188h584.297v340.798H805.526z M805.526,596.986"/>
	</g>
	<path d="M627.974,725.466c-9.509-9.509-24.949-9.509-34.458,0c-9.509,9.509-9.509,24.953,0,34.462l121.56,121.56
		c4.717,4.717,10.953,7.15,17.19,7.15c6.24,0,12.477-2.358,17.194-7.15c9.509-9.509,9.509-24.953,0-34.462L627.974,725.466z
		 M627.974,725.466"/>
</g>
</svg>
