<?xml version="1.0" encoding="utf-8"?>
<!-- Generator: Adobe Illustrator 18.0.0, SVG Export Plug-In . SVG Version: 6.00 Build 0)  -->
<!DOCTYPE svg PUBLIC "-//W3C//DTD SVG 1.1//EN" "http://www.w3.org/Graphics/SVG/1.1/DTD/svg11.dtd">
<svg version="1.1" id="图层_1" xmlns="http://www.w3.org/2000/svg" xmlns:xlink="http://www.w3.org/1999/xlink" x="0px" y="0px"
	 viewBox="0 0 1024 1024" style="enable-background:new 0 0 1024 1024;" xml:space="preserve">
<style type="text/css">
	.st0{fill:none;stroke:#C2F0F5;stroke-width:9;stroke-miterlimit:10;}
	.st1{fill:#069BE2;}
	.st2{fill:#C2F0F5;}
	.st3{fill:#30CFEF;}
	.st4{fill:none;stroke:#C2F0F5;stroke-width:4;stroke-miterlimit:10;}
	.st5{fill:none;}
</style>
<polyline class="st0" points="251.23,271.032 145.501,376.762 145.501,637.837 251.23,743.566 "/>
<line class="st0" x1="66.717" y1="507.299" x2="146.15" y2="507.299"/>
<polyline class="st0" points="772.703,271.032 878.432,376.762 878.432,637.837 772.703,743.566 "/>
<line class="st0" x1="957.216" y1="507.299" x2="877.783" y2="507.299"/>
<path class="st1" d="M511.967,318.412c-104.32,0-188.888,84.568-188.888,188.888c0,104.32,84.568,188.888,188.888,188.888
	s188.888-84.568,188.888-188.888C700.854,402.98,616.286,318.412,511.967,318.412z M511.967,679.555
	c-95.134,0-172.256-77.122-172.256-172.256c0-95.134,77.122-172.256,172.256-172.256c95.134,0,172.256,77.122,172.256,172.256
	C684.222,602.434,607.101,679.555,511.967,679.555z"/>
<path class="st2" d="M511.967,348.56c-87.669,0-158.739,71.07-158.739,158.739c0,87.669,71.07,158.739,158.739,158.739
	c87.669,0,158.739-71.07,158.739-158.739C670.706,419.63,599.636,348.56,511.967,348.56z M511.967,660.748
	c-84.747,0-153.448-68.701-153.448-153.448c0-84.747,68.701-153.448,153.448-153.448c84.747,0,153.448,68.701,153.448,153.448
	C665.414,592.047,596.714,660.748,511.967,660.748z"/>
<g>
	<rect x="508.696" y="281.261" class="st3" width="8.596" height="23.154"/>
	<rect x="508.696" y="710.184" class="st3" width="8.596" height="23.154"/>
</g>
<g>
	
		<rect x="494.67" y="281.72" transform="matrix(0.9979 -0.0654 0.0654 0.9979 -18.1128 33.2592)" class="st3" width="8.596" height="23.154"/>
	
		<rect x="522.723" y="709.725" transform="matrix(0.9979 -0.0654 0.0654 0.9979 -46.0423 36.0093)" class="st3" width="8.596" height="23.154"/>
</g>
<g>
	
		<rect x="480.703" y="283.096" transform="matrix(0.9914 -0.1305 0.1305 0.9914 -34.3164 65.8336)" class="st3" width="8.595" height="23.154"/>
	
		<rect x="536.689" y="708.349" transform="matrix(0.9914 -0.1305 0.1305 0.9914 -89.3479 76.7788)" class="st3" width="8.596" height="23.154"/>
</g>
<g>
	
		<rect x="466.857" y="285.382" transform="matrix(0.9808 -0.1951 0.1951 0.9808 -48.8791 97.6195)" class="st3" width="8.596" height="23.154"/>
	
		<rect x="550.536" y="706.063" transform="matrix(0.9808 -0.1951 0.1951 0.9808 -129.3513 122.0406)" class="st3" width="8.596" height="23.154"/>
</g>
<g>
	
		<rect x="453.19" y="288.569" transform="matrix(0.9659 -0.2588 0.2588 0.9659 -62.0946 128.6328)" class="st3" width="8.596" height="23.154"/>
	
		<rect x="564.203" y="702.876" transform="matrix(0.9659 -0.2588 0.2588 0.9659 -165.5421 171.482)" class="st3" width="8.596" height="23.154"/>
</g>
<g>
	
		<rect x="439.76" y="292.642" transform="matrix(0.9469 -0.3214 0.3214 0.9469 -74.2228 158.8853)" class="st3" width="8.595" height="23.154"/>
	
		<rect x="577.633" y="698.803" transform="matrix(0.9469 -0.3214 0.3214 0.9469 -197.4637 224.7594)" class="st3" width="8.595" height="23.154"/>
</g>
<g>
	
		<rect x="426.625" y="297.586" transform="matrix(0.9239 -0.3827 0.3827 0.9239 -85.5088 188.4382)" class="st3" width="8.596" height="23.154"/>
	
		<rect x="590.767" y="693.859" transform="matrix(0.9239 -0.3827 0.3827 0.9239 -224.6595 281.4144)" class="st3" width="8.596" height="23.154"/>
</g>
<g>
	
		<rect x="413.842" y="303.378" transform="matrix(0.8969 -0.4423 0.4423 0.8969 -96.1779 217.4114)" class="st3" width="8.596" height="23.154"/>
	
		<rect x="603.55" y="688.067" transform="matrix(0.8969 -0.4423 0.4423 0.8969 -246.7639 341.0083)" class="st3" width="8.595" height="23.154"/>
</g>
<g>
	
		<rect x="401.465" y="309.993" transform="matrix(0.866 -0.5 0.5 0.866 -106.4225 245.959)" class="st3" width="8.596" height="23.154"/>
	
		<rect x="615.927" y="681.452" transform="matrix(0.866 -0.5 0.5 0.866 -263.4169 402.9513)" class="st3" width="8.596" height="23.154"/>
</g>
<g>
	
		<rect x="389.548" y="317.404" transform="matrix(0.8315 -0.5556 0.5556 0.8315 -116.3975 274.2542)" class="st3" width="8.596" height="23.154"/>
	
		<rect x="627.845" y="674.041" transform="matrix(0.8315 -0.5556 0.5556 0.8315 -274.3765 466.7587)" class="st3" width="8.596" height="23.154"/>
</g>
<g>
	
		<rect x="378.14" y="325.579" transform="matrix(0.7934 -0.6088 0.6088 0.7934 -126.2178 302.485)" class="st3" width="8.595" height="23.154"/>
	
		<rect x="639.252" y="665.866" transform="matrix(0.7933 -0.6088 0.6088 0.7933 -279.4165 531.776)" class="st3" width="8.596" height="23.154"/>
</g>
<g>
	
		<rect x="367.292" y="334.482" transform="matrix(0.7518 -0.6593 0.6593 0.7518 -135.9585 330.8797)" class="st3" width="8.596" height="23.154"/>
	
		<rect x="650.101" y="656.963" transform="matrix(0.7518 -0.6594 0.6594 0.7518 -278.4042 597.3873)" class="st3" width="8.596" height="23.154"/>
</g>
<g>
	
		<rect x="357.049" y="344.075" transform="matrix(0.7071 -0.7071 0.7071 0.7071 -145.6481 359.6801)" class="st3" width="8.596" height="23.154"/>
	
		<rect x="660.343" y="647.37" transform="matrix(0.7071 -0.7071 0.7071 0.7071 -271.2768 662.976)" class="st3" width="8.596" height="23.154"/>
</g>
<g>
	
		<rect x="347.456" y="354.318" transform="matrix(0.6593 -0.7518 0.7518 0.6593 -155.2685 389.1032)" class="st3" width="8.596" height="23.154"/>
	
		<rect x="669.937" y="637.127" transform="matrix(0.6593 -0.7518 0.7518 0.6593 -258.0398 727.9083)" class="st3" width="8.596" height="23.154"/>
</g>
<g>
	
		<rect x="338.552" y="365.167" transform="matrix(0.6088 -0.7934 0.7934 0.6088 -164.7546 419.3977)" class="st3" width="8.595" height="23.154"/>
	
		<rect x="678.84" y="626.278" transform="matrix(0.6088 -0.7934 0.7934 0.6088 -238.773 791.5346)" class="st3" width="8.596" height="23.154"/>
</g>
<g>
	
		<rect x="330.378" y="376.574" transform="matrix(0.5556 -0.8315 0.8315 0.5556 -173.9959 450.7781)" class="st3" width="8.596" height="23.154"/>
	
		<rect x="687.015" y="614.871" transform="matrix(0.5556 -0.8315 0.8315 0.5556 -213.6356 853.2056)" class="st3" width="8.596" height="23.154"/>
</g>
<g>
	
		<rect x="322.967" y="388.492" transform="matrix(0.5 -0.866 0.866 0.5 -182.8373 483.454)" class="st3" width="8.595" height="23.154"/>
	
		<rect x="694.425" y="602.953" transform="matrix(0.5 -0.866 0.866 0.5 -182.834 912.3865)" class="st3" width="8.596" height="23.154"/>
</g>
<g>
	
		<rect x="316.351" y="400.868" transform="matrix(0.4423 -0.8969 0.8969 0.4423 -191.0819 517.6049)" class="st3" width="8.596" height="23.154"/>
	
		<rect x="701.041" y="590.576" transform="matrix(0.4423 -0.8969 0.8969 0.4423 -146.6741 968.4395)" class="st3" width="8.596" height="23.154"/>
</g>
<g>
	
		<rect x="310.56" y="413.652" transform="matrix(0.3827 -0.9239 0.9239 0.3827 -198.4927 553.3935)" class="st3" width="8.596" height="23.154"/>
	
		<rect x="706.833" y="577.793" transform="matrix(0.3827 -0.9239 0.9239 0.3827 -105.521 1020.815)" class="st3" width="8.596" height="23.154"/>
</g>
<g>
	
		<rect x="305.616" y="426.786" transform="matrix(0.3214 -0.9469 0.9469 0.3214 -204.8036 590.9236)" class="st3" width="8.596" height="23.154"/>
	
		<rect x="711.776" y="564.659" transform="matrix(0.3214 -0.9469 0.9469 0.3214 -59.7548 1069.0842)" class="st3" width="8.596" height="23.154"/>
</g>
<g>
	
		<rect x="301.542" y="440.216" transform="matrix(0.2588 -0.9659 0.9659 0.2588 -209.7157 630.2783)" class="st3" width="8.596" height="23.154"/>
	
		<rect x="715.85" y="551.229" transform="matrix(0.2588 -0.9659 0.9659 0.2588 -9.8682 1112.7521)" class="st3" width="8.596" height="23.154"/>
</g>
<g>
	
		<rect x="298.355" y="453.883" transform="matrix(0.1951 -0.9808 0.9808 0.1951 -212.9099 671.4861)" class="st3" width="8.596" height="23.154"/>
	
		<rect x="719.037" y="537.562" transform="matrix(0.1951 -0.9808 0.9808 0.1951 43.6367 1151.4489)" class="st3" width="8.596" height="23.154"/>
</g>
<g>
	
		<rect x="296.069" y="467.73" transform="matrix(0.1305 -0.9914 0.9914 0.1305 -214.0424 714.5473)" class="st3" width="8.596" height="23.154"/>
	
		<rect x="721.323" y="523.715" transform="matrix(0.1305 -0.9914 0.9914 0.1305 100.1882 1184.8287)" class="st3" width="8.596" height="23.154"/>
</g>
<g>
	
		<rect x="294.694" y="481.696" transform="matrix(0.0654 -0.9979 0.9979 0.0654 -212.7784 759.3663)" class="st3" width="8.596" height="23.154"/>
	
		<rect x="722.699" y="509.749" transform="matrix(0.0654 -0.9979 0.9979 0.0654 159.2425 1212.6726)" class="st3" width="8.596" height="23.154"/>
</g>
<g>
	<rect x="286.955" y="503.002" class="st3" width="23.154" height="8.596"/>
	<rect x="715.879" y="503.002" class="st3" width="23.154" height="8.596"/>
</g>
<g>
	
		<rect x="294.694" y="509.749" transform="matrix(-0.0654 -0.9979 0.9979 -0.0654 -201.6653 853.7704)" class="st3" width="8.596" height="23.154"/>
	
		<rect x="722.699" y="481.696" transform="matrix(-0.0654 -0.9979 0.9979 -0.0654 282.3232 1250.9722)" class="st3" width="8.596" height="23.154"/>
</g>
<g>
	
		<rect x="296.069" y="523.715" transform="matrix(-0.1305 -0.9914 0.9914 -0.1305 -191.1435 902.9547)" class="st3" width="8.596" height="23.154"/>
	
		<rect x="721.323" y="467.73" transform="matrix(-0.1305 -0.9914 0.9914 -0.1305 345.1358 1261.286)" class="st3" width="8.596" height="23.154"/>
</g>
<g>
	
		<rect x="298.355" y="537.562" transform="matrix(-0.1951 -0.9808 0.9808 -0.1951 -176.8854 953.1132)" class="st3" width="8.596" height="23.154"/>
	
		<rect x="719.037" y="453.883" transform="matrix(-0.1951 -0.9808 0.9808 -0.1951 407.9275 1265.7004)" class="st3" width="8.596" height="23.154"/>
</g>
<g>
	
		<rect x="301.542" y="551.229" transform="matrix(-0.2588 -0.9659 0.9659 -0.2588 -158.6313 1003.8906)" class="st3" width="8.596" height="23.154"/>
	
		<rect x="715.85" y="440.216" transform="matrix(-0.2588 -0.9659 0.9659 -0.2588 470.1363 1264.3344)" class="st3" width="8.596" height="23.154"/>
</g>
<g>
	
		<rect x="305.616" y="564.659" transform="matrix(-0.3214 -0.9469 0.9469 -0.3214 -136.1233 1054.927)" class="st3" width="8.596" height="23.154"/>
	
		<rect x="711.776" y="426.786" transform="matrix(-0.3214 -0.9469 0.9469 -0.3214 531.1481 1257.3422)" class="st3" width="8.596" height="23.154"/>
</g>
<g>
	
		<rect x="310.56" y="577.793" transform="matrix(-0.3827 -0.9239 0.9239 -0.3827 -109.1617 1105.801)" class="st3" width="8.596" height="23.154"/>
	
		<rect x="706.833" y="413.652" transform="matrix(-0.3827 -0.9239 0.9239 -0.3827 590.4208 1244.9575)" class="st3" width="8.596" height="23.154"/>
</g>
<g>
	
		<rect x="316.352" y="590.576" transform="matrix(-0.4423 -0.8969 0.8969 -0.4423 -77.5787 1156.0662)" class="st3" width="8.595" height="23.154"/>
	
		<rect x="701.041" y="400.868" transform="matrix(-0.4423 -0.8969 0.8969 -0.4423 647.3788 1227.4637)" class="st3" width="8.596" height="23.154"/>
</g>
<g>
	
		<rect x="322.967" y="602.953" transform="matrix(-0.5 -0.866 0.866 -0.5 -41.3015 1205.2152)" class="st3" width="8.595" height="23.154"/>
	
		<rect x="694.425" y="388.492" transform="matrix(-0.5 -0.866 0.866 -0.5 701.6152 1205.2151)" class="st3" width="8.595" height="23.154"/>
</g>
<g>
	
		<rect x="330.378" y="614.871" transform="matrix(-0.5556 -0.8315 0.8315 -0.5556 -0.2528 1252.7607)" class="st3" width="8.596" height="23.154"/>
	
		<rect x="687.014" y="376.574" transform="matrix(-0.5556 -0.8315 0.8315 -0.5556 752.6499 1178.6012)" class="st3" width="8.596" height="23.154"/>
</g>
<g>
	
		<rect x="338.552" y="626.278" transform="matrix(-0.6088 -0.7934 0.7934 -0.6088 45.5113 1298.1549)" class="st3" width="8.596" height="23.154"/>
	
		<rect x="678.84" y="365.166" transform="matrix(-0.6088 -0.7934 0.7934 -0.6088 800.1055 1148.0615)" class="st3" width="8.596" height="23.154"/>
</g>
<g>
	
		<rect x="347.455" y="637.127" transform="matrix(-0.6593 -0.7518 0.7518 -0.6593 95.9626 1340.8875)" class="st3" width="8.596" height="23.154"/>
	
		<rect x="669.937" y="354.318" transform="matrix(-0.6593 -0.7518 0.7518 -0.6593 843.6874 1114.0646)" class="st3" width="8.596" height="23.154"/>
</g>
<g>
	
		<rect x="357.049" y="647.37" transform="matrix(-0.7071 -0.7071 0.7071 -0.7071 150.9104 1380.4028)" class="st3" width="8.596" height="23.154"/>
	
		<rect x="660.343" y="344.075" transform="matrix(-0.7071 -0.7071 0.7071 -0.7071 883.1274 1077.1094)" class="st3" width="8.596" height="23.154"/>
</g>
<g>
	
		<rect x="367.292" y="656.963" transform="matrix(-0.7518 -0.6593 0.6593 -0.7518 210.1728 1416.183)" class="st3" width="8.596" height="23.154"/>
	
		<rect x="650.101" y="334.482" transform="matrix(-0.7518 -0.6594 0.6594 -0.7518 918.2227 1037.7167)" class="st3" width="8.596" height="23.154"/>
</g>
<g>
	
		<rect x="378.14" y="665.866" transform="matrix(-0.7933 -0.6088 0.6088 -0.7933 273.4333 1447.7072)" class="st3" width="8.596" height="23.154"/>
	
		<rect x="639.252" y="325.579" transform="matrix(-0.7933 -0.6088 0.6088 -0.7933 948.8535 996.413)" class="st3" width="8.596" height="23.154"/>
</g>
<g>
	
		<rect x="389.548" y="674.041" transform="matrix(-0.8315 -0.5556 0.5556 -0.8315 340.4052 1474.4969)" class="st3" width="8.596" height="23.154"/>
	
		<rect x="627.845" y="317.404" transform="matrix(-0.8315 -0.5556 0.5556 -0.8315 974.9695 953.7232)" class="st3" width="8.596" height="23.154"/>
</g>
<g>
	
		<rect x="401.465" y="681.452" transform="matrix(-0.866 -0.5 0.5 -0.866 410.6586 1496.0907)" class="st3" width="8.596" height="23.154"/>
	
		<rect x="615.927" y="309.993" transform="matrix(-0.866 -0.5 0.5 -0.866 996.5769 910.1665)" class="st3" width="8.596" height="23.154"/>
</g>
<g>
	
		<rect x="413.842" y="688.067" transform="matrix(-0.8969 -0.4423 0.4423 -0.8969 483.7104 1512.075)" class="st3" width="8.596" height="23.154"/>
	
		<rect x="603.55" y="303.378" transform="matrix(-0.8969 -0.4423 0.4423 -0.8969 1013.7017 866.2789)" class="st3" width="8.595" height="23.154"/>
</g>
<g>
	
		<rect x="426.625" y="693.859" transform="matrix(-0.9239 -0.3827 0.3827 -0.9239 559.0894 1522.0808)" class="st3" width="8.596" height="23.154"/>
	
		<rect x="590.767" y="297.586" transform="matrix(-0.9239 -0.3827 0.3827 -0.9239 1026.5249 822.5108)" class="st3" width="8.596" height="23.154"/>
</g>
<g>
	
		<rect x="439.76" y="698.803" transform="matrix(-0.9469 -0.3214 0.3214 -0.9469 636.2007 1525.7982)" class="st3" width="8.595" height="23.154"/>
	
		<rect x="577.633" y="292.642" transform="matrix(-0.9469 -0.3214 0.3214 -0.9469 1035.187 779.3517)" class="st3" width="8.595" height="23.154"/>
</g>
<g>
	
		<rect x="453.19" y="702.876" transform="matrix(-0.9659 -0.2588 0.2588 -0.9659 714.4732 1522.9685)" class="st3" width="8.596" height="23.154"/>
	
		<rect x="564.203" y="288.569" transform="matrix(-0.9659 -0.2588 0.2588 -0.9659 1039.9476 737.2021)" class="st3" width="8.596" height="23.154"/>
</g>
<g>
	
		<rect x="466.857" y="706.063" transform="matrix(-0.9808 -0.1951 0.1951 -0.9808 793.258 1513.4065)" class="st3" width="8.596" height="23.154"/>
	
		<rect x="550.536" y="285.382" transform="matrix(-0.9808 -0.1951 0.1951 -0.9808 1041.0669 696.4604)" class="st3" width="8.596" height="23.154"/>
</g>
<g>
	
		<rect x="480.703" y="708.349" transform="matrix(-0.9914 -0.1305 0.1305 -0.9914 871.873 1497.0043)" class="st3" width="8.595" height="23.154"/>
	
		<rect x="536.689" y="283.096" transform="matrix(-0.9914 -0.1305 0.1305 -0.9914 1038.8868 657.4323)" class="st3" width="8.596" height="23.154"/>
</g>
<g>
	
		<rect x="494.67" y="709.725" transform="matrix(-0.9979 -0.0654 0.0654 -0.9979 949.6954 1473.691)" class="st3" width="8.596" height="23.154"/>
	
		<rect x="522.723" y="281.72" transform="matrix(-0.9979 -0.0654 0.0654 -0.9979 1033.7321 620.4316)" class="st3" width="8.596" height="23.154"/>
</g>
<g>
	<line class="st4" x1="172.39" y1="507.299" x2="261.398" y2="507.299"/>
	<line class="st4" x1="172.39" y1="494.687" x2="172.39" y2="520.528"/>
	<line class="st4" x1="217.076" y1="494.687" x2="217.076" y2="520.528"/>
	<line class="st4" x1="261.398" y1="494.687" x2="261.398" y2="520.528"/>
</g>
<g>
	<line class="st4" x1="764.278" y1="507.299" x2="853.287" y2="507.299"/>
	<line class="st4" x1="764.278" y1="494.687" x2="764.278" y2="520.528"/>
	<line class="st4" x1="808.965" y1="494.687" x2="808.965" y2="520.528"/>
	<line class="st4" x1="853.287" y1="494.687" x2="853.287" y2="520.528"/>
</g>
<path class="st5" d="M511.273,380.031l4.264,4.282c-1.181-0.037-2.363-0.056-3.563-0.056h-0.701V380.031z"/>
</svg>
