<?xml version="1.0" encoding="utf-8"?>
<!-- Generator: Adobe Illustrator 18.0.0, SVG Export Plug-In . SVG Version: 6.00 Build 0)  -->
<!DOCTYPE svg PUBLIC "-//W3C//DTD SVG 1.1//EN" "http://www.w3.org/Graphics/SVG/1.1/DTD/svg11.dtd">
<svg version="1.1" id="图层_1" xmlns="http://www.w3.org/2000/svg" xmlns:xlink="http://www.w3.org/1999/xlink" x="0px" y="0px"
	 viewBox="0 0 1024 1024" style="enable-background:new 0 0 1024 1024;" xml:space="preserve">
<g>
	<path d="M369.639,792.772h286.192c15.578,0,29.206,11.683,29.206,29.206c0,15.574-11.683,29.201-29.206,29.201H369.639
		c-15.572,0-29.201-11.683-29.201-29.201C340.438,804.455,352.117,792.772,369.639,792.772 M632.469,894.008H393.002
		c-3.895,0-5.839,5.844-1.945,9.739l87.608,44.778c9.734,3.89,21.418,7.784,35.046,7.784c11.683,0,21.417-3.894,33.095-7.784
		l87.614-44.778C638.313,899.852,636.363,894.008,632.469,894.008L632.469,894.008z M507.872,261.274
		c35.04,0,66.191,13.627,97.342,42.829c31.15,27.256,44.778,62.301,44.778,105.13c0,13.628,11.683,29.206,29.206,29.206
		c15.574,0,29.202-13.627,29.202-29.206c0-62.296-19.468-110.969-60.353-147.96c-40.884-36.995-87.612-54.513-140.175-54.513
		c-15.578,0-29.207,11.678-29.207,29.201C480.615,247.645,492.293,261.274,507.872,261.274"/>
	<path d="M640.259,744.098H385.218c-29.206,0-52.567-21.413-56.463-50.619c-3.894-5.839-13.627-19.466-17.522-23.362
		c-83.714-64.246-132.387-161.593-132.387-266.724c0-184.954,149.91-334.864,334.865-334.864
		c184.955,0,334.864,149.91,334.864,334.864c0,107.081-48.673,204.423-134.336,268.669c-3.895,3.894-13.628,15.577-17.524,23.366
		C692.826,720.737,669.46,744.098,640.259,744.098L640.259,744.098z M393.002,677.907h239.467
		c5.844-23.362,29.206-50.619,40.884-60.357c68.141-50.619,107.081-130.438,107.081-216.101
		c0-147.965-120.709-268.674-268.669-268.674c-147.965,0-268.674,120.709-268.674,268.674c0,85.662,38.94,163.538,107.081,214.155
		C361.851,625.34,387.163,652.596,393.002,677.907L393.002,677.907z M393.002,677.907"/>
</g>
</svg>
