<?xml version="1.0" encoding="utf-8"?>
<!-- Generator: Adobe Illustrator 18.0.0, SVG Export Plug-In . SVG Version: 6.00 Build 0)  -->
<!DOCTYPE svg PUBLIC "-//W3C//DTD SVG 1.1//EN" "http://www.w3.org/Graphics/SVG/1.1/DTD/svg11.dtd">
<svg version="1.1" id="图层_1" xmlns="http://www.w3.org/2000/svg" xmlns:xlink="http://www.w3.org/1999/xlink" x="0px" y="0px"
	 viewBox="0 0 1024 1024" style="enable-background:new 0 0 1024 1024;" xml:space="preserve">
<style type="text/css">
	.st0{fill:#1574A1;}
	.st1{clip-path:url(#SVGID_2_);}
</style>
<g>
	<path class="st0" d="M398.187,395.275c-8.643,0-15.644-7.004-15.644-15.644V323.16c0-8.641,7.001-15.644,15.644-15.644
		s15.644,7.004,15.644,15.644v56.471C413.831,388.223,406.83,395.275,398.187,395.275L398.187,395.275z M398.187,395.275"/>
	<path class="st0" d="M310.924,700.623c-21.705,0-39.386-17.681-39.386-39.383V375.11c0-21.702,17.681-39.384,39.386-39.384h40.228
		c4.421,0,8.495,1.737,11.474,4.967c2.981,3.177,4.472,7.399,4.173,11.769c-0.548,7.899-7.847,14.553-15.942,14.553h-39.932
		c-4.472,0-8.047,3.626-8.047,8.047v50.809h397.827v-50.76c0-4.469-3.626-8.044-8.047-8.044h-39.634
		c-4.421,0-8.492-1.739-11.473-4.967c-2.981-3.179-4.469-7.401-4.171-11.771c0.546-7.899,7.848-14.553,15.943-14.553h39.284
		c21.705,0,39.387,17.681,39.387,39.434v199.213c0,0-8.541-4.918-9.138-5.265c-6.208-3.577-12.567-6.955-19.469-10.282l-2.683-1.29
		V457.258H302.877v203.981c0,4.469,3.626,8.044,8.047,8.044h246.542l1.44,2.136c4.469,6.754,4.867,7.251,9.487,13.062l2.037,2.583
		l0.1,0.151c0.296,0.395,2.383,2.583,5.066,5.313l7.796,8.095H310.924z M310.924,700.623"/>
	<path class="st0" d="M618.556,697.247l0.247-0.25l-34.417-33.474c-2.534-2.483-3.924-5.762-3.924-9.288
		c0-7.251,6.009-13.112,13.408-13.112c3.577,0,6.953,1.342,9.487,3.825l34.369,33.476l86.768-84.682l0.296-0.298l0.099-0.1
		c2.534-2.284,5.813-3.574,9.189-3.574c7.401,0,13.411,5.859,13.411,13.112c0,3.276-1.293,6.455-3.677,8.939l-0.148,0.148
		l-87.066,85.029l0.25,0.25l-18.923,18.475l-0.199-0.199l-0.199,0.199L618.556,697.247z M482.718,611.175
		c-8.643,0-15.644-7.004-15.644-15.644c0-8.643,7.001-15.647,15.644-15.647h38.244c8.641,0,15.644,7.004,15.644,15.647
		c0,8.641-7.004,15.644-15.644,15.644H482.718z M362.875,611.175c-8.643,0-15.644-7.004-15.644-15.644
		c0-8.643,7.001-15.647,15.644-15.647h38.242c8.643,0,15.647,7.004,15.647,15.647c0,8.641-7.004,15.644-15.647,15.644H362.875z
		 M602.514,545.268c-8.643,0-15.644-7.004-15.644-15.644c0-8.643,7.001-15.647,15.644-15.647h38.242
		c4.222,0,8.146,1.639,11.126,4.668c2.929,2.981,4.569,6.856,4.52,11.027c0,8.592-7.004,15.644-15.647,15.644h-38.242V545.268z
		 M482.718,545.268c-8.643,0-15.644-7.004-15.644-15.644c0-8.643,7.001-15.647,15.644-15.647h38.244
		c8.641,0,15.644,7.004,15.644,15.647c0,8.641-7.004,15.644-15.644,15.644H482.718z M362.875,545.268
		c-8.643,0-15.644-7.004-15.644-15.644c0-8.643,7.001-15.647,15.644-15.647h38.242c8.643,0,15.647,7.004,15.647,15.647
		c0,8.641-7.004,15.644-15.647,15.644H362.875z M605.395,395.275c-4.222,0-8.197-1.639-11.175-4.617
		c-2.932-2.932-4.521-6.856-4.521-11.027V323.16c0-8.641,7.004-15.644,15.645-15.644c8.643,0,15.644,7.004,15.644,15.644v56.471
		C621.039,388.223,614.036,395.275,605.395,395.275L605.395,395.275z M445.915,367.066c-8.641,0-15.644-7.004-15.644-15.647
		c0-8.641,7.004-15.644,15.644-15.644h111.8c8.641,0,15.644,7.004,15.644,15.644c0,8.643-7.004,15.647-15.644,15.647H445.915z
		 M445.915,367.066"/>
</g>
<g>
	<defs>
		<rect id="SVGID_1_" x="175.774" y="178.26" width="670.265" height="670.2"/>
	</defs>
	<clipPath id="SVGID_2_">
		<use xlink:href="#SVGID_1_"  style="overflow:visible;"/>
	</clipPath>
	<path class="st1" d="M837.613,715.254h-22.064c-3.678,0-6.685,3.012-6.685,6.686v58.839c0,14.377-16.715,31.427-31.427,31.427
		h-59.841c-3.678,0-6.686,3.008-6.686,6.685v22.065c0,3.678,3.008,6.685,6.686,6.685h59.841c36.776,0,66.531-29.751,66.531-66.528
		v-58.839C844.299,718.266,841.291,715.254,837.613,715.254L837.613,715.254z M303.049,180.021h-60.846
		c-36.772,0-66.528,29.754-66.528,66.527v61.848c0,3.678,3.008,6.689,6.686,6.689h22.064c3.678,0,6.686-3.011,6.686-6.689v-61.848
		c0-14.373,16.717-31.423,31.426-31.423h60.847c3.675,0,6.686-3.008,6.686-6.686v-22.064
		C309.735,182.697,306.727,180.021,303.049,180.021L303.049,180.021z M778.442,178.685H718.6c-3.678,0-6.685,3.008-6.685,6.686
		v22.065c0,3.678,3.008,6.686,6.685,6.686h59.842c14.373,0,31.423,16.717,31.423,31.426v61.848c0,3.678,3.012,6.686,6.689,6.686
		h22.064c3.678,0,6.686-3.008,6.686-6.686v-62.182C844.969,208.439,815.214,178.685,778.442,178.685L778.442,178.685z
		 M303.049,811.872h-60.846c-14.374,0-31.424-16.715-31.424-31.427v-58.504c0-3.675-3.011-6.686-6.689-6.686h-21.729
		c-3.678,0-6.686,3.012-6.686,6.686v58.504c0,36.776,29.755,66.531,66.528,66.531h60.846c3.678,0,6.686-3.012,6.686-6.69v-22.064
		C309.735,814.88,306.727,811.872,303.049,811.872L303.049,811.872z M378.939,622.65"/>
</g>
</svg>
