<?xml version="1.0" encoding="utf-8"?>
<!-- Generator: Adobe Illustrator 18.0.0, SVG Export Plug-In . SVG Version: 6.00 Build 0)  -->
<!DOCTYPE svg PUBLIC "-//W3C//DTD SVG 1.1//EN" "http://www.w3.org/Graphics/SVG/1.1/DTD/svg11.dtd">
<svg version="1.1" id="图层_1" xmlns="http://www.w3.org/2000/svg" xmlns:xlink="http://www.w3.org/1999/xlink" x="0px" y="0px"
	 viewBox="0 0 1024 1024" style="enable-background:new 0 0 1024 1024;" xml:space="preserve">
<style type="text/css">
	.st0{fill:#333333;}
</style>
<g>
	<g>
		<path class="st0" d="M847.822,236.851H176.02c-6.515-0.052-12.776,2.511-17.38,7.116c-4.605,4.605-7.169,10.865-7.116,17.38
			v439.47c-0.053,6.51,2.511,12.775,7.116,17.38c4.604,4.604,10.865,7.168,17.38,7.111h102.299
			c7.406,0.069,14.435-3.247,19.096-9.002l136.527-169.308l62.318,51.508c10.087,8.284,24.495,7.203,33.505-2.162l121.029-130.76
			c11.894,7.21,25.58,11.164,40.344,11.164c42.874,0,78.171-34.942,78.171-78.171c0-43.225-34.945-78.171-78.171-78.171
			c-42.866,0-78.17,34.946-78.17,78.171c0,10.446,2.162,20.178,5.766,29.539L509.219,546.279l-63.392-52.59
			c-5.047-4.325-11.527-6.129-18.015-5.407c-6.488,0.718-12.253,3.962-16.571,9.001L266.795,676.317h-66.64V285.482h622.82v390.842
			H486.531c-6.515-0.057-12.775,2.507-17.38,7.111c-4.605,4.605-7.168,10.866-7.116,17.381v119.596H319.029
			c-6.51-0.057-12.771,2.507-17.376,7.112c-4.605,4.604-7.168,10.865-7.115,17.38c-0.053,6.51,2.51,12.775,7.115,17.38
			c4.605,4.604,10.866,7.168,17.376,7.111H647.19c6.515,0.057,12.775-2.507,17.384-7.111c4.605-4.605,7.168-10.866,7.116-17.38
			c0.052-6.515-2.511-12.776-7.116-17.38c-4.609-4.609-10.869-7.169-17.384-7.112H511.389v-95.105H847.83
			c6.514,0.057,12.775-2.507,17.38-7.111c4.605-4.605,7.168-10.87,7.112-17.38v-439.47
			C871.962,247.656,861.157,236.851,847.822,236.851 M691.496,369.052c16.212,0,29.18,12.969,29.18,29.18
			c0,16.212-12.968,29.175-29.18,29.175c-7.746,0.034-15.187-3.028-20.669-8.507c-5.478-5.482-8.541-12.922-8.51-20.669
			C661.958,382.38,675.284,369.052,691.496,369.052"/>
	</g>
</g>
</svg>
