<?xml version="1.0" encoding="utf-8"?>
<!-- Generator: Adobe Illustrator 18.0.0, SVG Export Plug-In . SVG Version: 6.00 Build 0)  -->
<!DOCTYPE svg PUBLIC "-//W3C//DTD SVG 1.1//EN" "http://www.w3.org/Graphics/SVG/1.1/DTD/svg11.dtd">
<svg version="1.1" id="图层_1" xmlns="http://www.w3.org/2000/svg" xmlns:xlink="http://www.w3.org/1999/xlink" x="0px" y="0px"
	 viewBox="0 0 1024 1024" style="enable-background:new 0 0 1024 1024;" xml:space="preserve">
<g>
	<path d="M239.819,860.177V730.314c-60.083-3.472-107.905-53.467-107.905-114.417V314.434c0-63.219,51.393-114.613,114.613-114.613
		h529.528c63.215,0,114.613,51.394,114.613,114.613v301.462c0,63.219-51.398,114.613-114.613,114.613H376.63L239.819,860.177z
		 M246.528,236.013c-43.239,0-78.422,35.183-78.422,78.421v301.462c0,43.239,35.184,78.418,78.422,78.418h29.483v81.701
		l86.238-81.701h413.807c43.239,0,78.417-35.179,78.417-78.418V314.434c0-43.238-35.179-78.421-78.417-78.421H246.528z
		 M246.528,236.013"/>
	<path d="M297.1,457.662c0,25.823,20.935,46.762,46.762,46.762c25.824,0,46.762-20.938,46.762-46.762
		c0-25.828-20.937-46.763-46.762-46.763C318.035,410.899,297.1,431.834,297.1,457.662L297.1,457.662z M297.1,457.662"/>
	<path d="M464.506,457.662c0,25.823,20.935,46.762,46.762,46.762c25.824,0,46.763-20.938,46.763-46.762
		c0-25.828-20.938-46.763-46.763-46.763C485.44,410.899,464.506,431.834,464.506,457.662L464.506,457.662z M464.506,457.662"/>
	<path d="M631.911,457.662c0,25.823,20.935,46.762,46.763,46.762c25.823,0,46.758-20.938,46.758-46.762
		c0-25.828-20.935-46.763-46.758-46.763C652.846,410.899,631.911,431.834,631.911,457.662L631.911,457.662z M631.911,457.662"/>
</g>
</svg>
