<?xml version="1.0" encoding="utf-8"?>
<!-- Generator: Adobe Illustrator 21.1.0, SVG Export Plug-In . SVG Version: 6.00 Build 0)  -->
<!DOCTYPE svg PUBLIC "-//W3C//DTD SVG 1.1//EN" "http://www.w3.org/Graphics/SVG/1.1/DTD/svg11.dtd">
<svg version="1.1" id="图层_1" xmlns="http://www.w3.org/2000/svg" xmlns:xlink="http://www.w3.org/1999/xlink" x="0px" y="0px"
	 viewBox="0 0 1000 1000" style="enable-background:new 0 0 1000 1000;" xml:space="preserve">
<g>
	<path d="M477.2,904.1c-7.6,0-14.8-3.4-19.5-9.4L81.2,425.5c-7.2-9-7.3-21.7-0.4-30.8L249.7,174c4.7-6.2,12.1-9.8,19.9-9.8h412.7
		c7.7,0,15,3.6,19.8,9.7l166.2,214.6c7,9,7,21.7-0.1,30.7L496.9,894.5c-4.7,6-11.9,9.6-19.5,9.6
		C477.3,904.1,477.2,904.1,477.2,904.1z M132.4,409.5l344.5,429.4l339.8-435.2L670,214.2H281.9L132.4,409.5z"/>
</g>
<g>
	<path d="M477.2,904.1c-11,0-20.8-7.2-23.9-17.8l-207.6-690c-4-13.2,3.5-27.2,16.7-31.1c13.2-4,27.2,3.5,31.1,16.7L477,791.9
		L658.3,182c3.9-13.2,17.9-20.8,31.1-16.8c13.2,3.9,20.8,17.9,16.8,31.1l-205.1,690C498,896.8,488.3,904.1,477.2,904.1
		C477.2,904.1,477.2,904.1,477.2,904.1z"/>
</g>
<g>
	<path d="M333.2,425.8c-4.8,0-9.7-1.4-13.9-4.3c-11.4-7.7-14.5-23.3-6.8-34.7l142.7-211.7c4.6-6.9,12.4-11,20.7-11c0,0,0,0,0,0
		c8.3,0,16,4.1,20.7,11L640,386.8c7.7,11.4,4.8,27-6.7,34.7c-11.4,7.7-27,4.8-34.7-6.7L476,233.8l-122,181
		C349.2,422,341.3,425.8,333.2,425.8z"/>
</g>
<g>
	<path d="M103.4,431.8c-13.8,0-24.9-11.1-25-24.9c-0.1-13.8,11.1-25,24.9-25.1l745-3.1c0,0,0.1,0,0.1,0c13.8,0,24.9,11.1,25,24.9
		c0.1,13.8-11.1,25-24.9,25.1l-745,3.1C103.5,431.8,103.5,431.8,103.4,431.8z"/>
</g>
</svg>
