<?xml version="1.0" encoding="utf-8"?>
<!-- Generator: Adobe Illustrator 21.1.0, SVG Export Plug-In . SVG Version: 6.00 Build 0)  -->
<!DOCTYPE svg PUBLIC "-//W3C//DTD SVG 1.1//EN" "http://www.w3.org/Graphics/SVG/1.1/DTD/svg11.dtd">
<svg version="1.1" id="图层_1" xmlns="http://www.w3.org/2000/svg" xmlns:xlink="http://www.w3.org/1999/xlink" x="0px" y="0px"
	 viewBox="0 0 1000 1000" style="enable-background:new 0 0 1000 1000;" xml:space="preserve">
<g>
	<path d="M389.8,891.4H206.7c-51.8,0-94-42.1-94-94V200.3c0-51.8,42.1-94,94-94h553.4c51.8,0,94,42.1,94,94v52.3
		c0,13.8-11.2,25-25,25s-25-11.2-25-25v-52.3c0-24.2-19.7-44-44-44H206.7c-24.2,0-44,19.7-44,44v597.2c0,24.2,19.7,44,44,44h183.1
		c13.8,0,25,11.2,25,25S403.6,891.4,389.8,891.4z"/>
</g>
<g>
	<path d="M710.8,315.2H259.3c-13.8,0-25-11.2-25-25s11.2-25,25-25h451.5c13.8,0,25,11.2,25,25S724.6,315.2,710.8,315.2z"/>
</g>
<g>
	<path d="M590.8,489.1H259.3c-13.8,0-25-11.2-25-25s11.2-25,25-25h331.5c13.8,0,25,11.2,25,25S604.6,489.1,590.8,489.1z"/>
</g>
<g>
	<path d="M440.8,676.6H259.3c-13.8,0-25-11.2-25-25s11.2-25,25-25h181.5c13.8,0,25,11.2,25,25S454.6,676.6,440.8,676.6z"/>
</g>
<g>
	<path d="M557.2,889.4c-16.9,0-33.1-6.8-45-18.9c-12.6-12.8-19.2-30.4-18-48.4c4.9-74.6,5.6-87.8,5.7-89.9
		c0.1-10.6,5.6-16.2,14.7-25.5c4.8-4.9,11.8-11.8,20.9-20.7c15.9-15.5,38.5-37.4,67.3-64.9c53.1-50.9,116-110.6,148.8-141.6
		c12.9-12.2,29.9-18.9,47.7-18.6c17.8,0.2,34.5,7.3,47.1,19.9l63.3,63.3c13,13,20.1,30.3,19.9,48.6c-0.2,18.4-7.5,35.5-20.7,48.3
		L656.9,884.6l-96.7,4.7C559.2,889.4,558.2,889.4,557.2,889.4z M559,864.4L559,864.4L559,864.4z M549.3,742.7
		c-0.6,10.7-2.1,33.3-5.3,82.7c-0.3,5.1,2.2,8.5,3.7,10.1c1.5,1.6,4.9,4.1,10,3.9h0l77.9-3.8L874,605c3.5-3.4,5.4-7.9,5.5-12.8
		c0-4.9-1.8-9.4-5.3-12.9l-63.3-63.3c-6.9-6.9-17.9-7.1-25.1-0.3C658.7,636.3,570.9,720.6,549.3,742.7z M499.8,732.4
		c0,0.1,0,0.2,0,0.2C499.8,732.6,499.8,732.5,499.8,732.4z"/>
</g>
<g>
	<path d="M650,768.3l-11.2-0.7c-7.1-0.4-69.8-5.4-102.5-47.3c-8.5-10.9-6.5-26.6,4.4-35.1c10.9-8.5,26.6-6.5,35.1,4.4
		c12.7,16.3,39.1,24,55.5,26.8l160.9-160.9c9.8-9.8,25.6-9.8,35.4,0c9.8,9.8,9.8,25.6,0,35.4L650,768.3z"/>
</g>
<g>
	<path d="M859.5,678.9c-11.5,0-21.8-7.9-24.4-19.6c-0.1-0.5-6.5-27.9-24-53.4c-21.6-31.2-49-45-83.9-42c-0.7,0.1-1.4,0.1-2.1,0.1
		c-12.8,0-23.8-9.8-24.9-22.9c-1.2-13.8,9-25.9,22.8-27c53.4-4.5,98.4,17.9,130.3,64.9c22.6,33.4,30.4,68,30.7,69.5
		c3,13.5-5.6,26.8-19.1,29.8C863.1,678.7,861.2,678.9,859.5,678.9z"/>
</g>
<g>
	<path d="M655.4,844.9c-3.6-3.9-35-40.6-31.1-111c0.8-13.8,12.6-24.4,26.3-23.6c13.8,0.8,24.3,12.5,23.6,26.3
		c-2.7,49.6,17.5,73.9,18.4,74.9c-0.2-0.2-0.3-0.3-0.3-0.3L655.4,844.9z"/>
</g>
</svg>
