<?xml version="1.0" encoding="utf-8"?>
<!-- Generator: Adobe Illustrator 21.1.0, SVG Export Plug-In . SVG Version: 6.00 Build 0)  -->
<!DOCTYPE svg PUBLIC "-//W3C//DTD SVG 1.1//EN" "http://www.w3.org/Graphics/SVG/1.1/DTD/svg11.dtd">
<svg version="1.1" id="图层_1" xmlns="http://www.w3.org/2000/svg" xmlns:xlink="http://www.w3.org/1999/xlink" x="0px" y="0px"
	 viewBox="0 0 1000 1000" style="enable-background:new 0 0 1000 1000;" xml:space="preserve">
<g>
	<path d="M212.8,891.1c-11.5,0-23-1.3-34-3.9c-8.8-2.1-15.9-8.8-18.4-17.5c-2.5-8.7-0.1-18.1,6.4-24.5l36.3-36.3l0.8-60.8l-58.2,0.8
		L108,786.6c-6.4,6.4-15.8,8.9-24.5,6.4c-8.7-2.5-15.4-9.5-17.5-18.3c-12-51,3-103.5,40.2-140.7c28.4-28.4,66.2-44.1,106.3-44.1
		c18.4,0,36.4,3.3,53.5,9.8l276.1-276.1c-21.1-55.5-8-117.5,34.3-159.8c28.4-28.4,66.2-44,106.3-44c11.5,0,23.1,1.3,34.2,3.9
		c8.8,2.1,15.9,8.7,18.4,17.5c2.5,8.7,0.1,18.1-6.4,24.6l-37.7,37.7l-0.8,58.2l60.8-0.8l36.3-36.3c6.4-6.4,15.8-8.8,24.5-6.4
		c8.7,2.5,15.4,9.5,17.5,18.4c11.9,50.8-3.2,103.3-40.2,140.4c-28.4,28.4-66.2,44-106.4,44c-18.4,0-36.3-3.3-53.3-9.7L353.5,687.4
		c21,55.4,7.8,117.4-34.4,159.6C290.8,875.4,253,891.1,212.8,891.1z M229.3,697.8c6.6,0,13,2.6,17.7,7.3c4.8,4.8,7.4,11.3,7.3,18
		l-1.3,96.6c-0.1,5.6-2,10.9-5.4,15.2c13.5-5,25.8-12.8,36.3-23.2c29.3-29.3,37.6-72.9,21.2-111l-4-9.2c-4.1-9.4-2-20.3,5.3-27.6
		l300-300c7.2-7.2,18.2-9.3,27.6-5.3l9.2,4c12.7,5.5,26.1,8.2,40,8.2c26.8,0,52-10.4,71-29.4c10.5-10.5,18.4-23,23.4-36.4
		c-4.3,3.5-9.7,5.5-15.4,5.5l-96.6,1.3c-0.1,0-0.2,0-0.3,0c-6.6,0-13-2.6-17.7-7.3c-4.8-4.8-7.4-11.3-7.3-18l1.3-94.1
		c0.1-6.2,2.5-12.1,6.7-16.7c-13.5,4.9-25.9,12.8-36.4,23.3c-29.4,29.4-37.6,73-21.1,111.1l4,9.2c4.1,9.4,2,20.4-5.3,27.6L289.5,647
		c-7.3,7.3-18.2,9.3-27.6,5.3l-9.2-4c-12.7-5.5-26.2-8.3-40.1-8.3c-26.8,0-52,10.4-71,29.4c-10.6,10.6-18.5,23-23.5,36.5
		c4.5-4.3,10.6-6.7,16.8-6.8l94.1-1.3C229.1,697.8,229.2,697.8,229.3,697.8z"/>
</g>
<g>
	<path d="M218.8,346.2c-6.4,0-12.8-2.5-17.7-7.4L86.6,223.9c-4.7-4.7-7.3-11.1-7.3-17.7s2.7-13,7.4-17.7l43.7-43.5
		c9.8-9.7,25.6-9.7,35.4,0.1L280.1,260c4.7,4.7,7.3,11.1,7.3,17.7s-2.7,13-7.4,17.7l-43.7,43.5C231.5,343.7,225.1,346.2,218.8,346.2
		z M139.7,206.3l79.1,79.5l8.2-8.2l-79.1-79.5L139.7,206.3z"/>
</g>
<g>
	<rect x="400.7" y="223" transform="matrix(0.7086 -0.7056 0.7056 0.7086 -218.4077 441.8588)" width="50" height="524.8"/>
</g>
<g>
	<path d="M777,913c-18.6,0-37.2-7.1-51.4-21.3v0L537.2,702.5l112.2-111.8l188.4,189.2c28.2,28.3,28.1,74.3-0.2,102.5l-9.5,9.4
		C814,905.9,795.5,913,777,913z M761,856.4c8.8,8.8,23,8.8,31.8,0.1l9.5-9.4c8.8-8.8,8.8-23,0.1-31.8L649.3,661.4l-41.4,41.2
		L761,856.4L761,856.4z"/>
</g>
<g>
	<path d="M540.7,758.4c-6.4,0-12.8-2.5-17.7-7.4c-9.7-9.8-9.7-25.6,0.1-35.4l140.4-139.8c9.8-9.7,25.6-9.7,35.4,0.1
		c9.7,9.8,9.7,25.6-0.1,35.4L558.3,751.1C553.4,756,547,758.4,540.7,758.4z"/>
</g>
</svg>
