<?xml version="1.0" encoding="utf-8"?>
<!-- Generator: Adobe Illustrator 21.1.0, SVG Export Plug-In . SVG Version: 6.00 Build 0)  -->
<!DOCTYPE svg PUBLIC "-//W3C//DTD SVG 1.1//EN" "http://www.w3.org/Graphics/SVG/1.1/DTD/svg11.dtd">
<svg version="1.1" id="图层_1" xmlns="http://www.w3.org/2000/svg" xmlns:xlink="http://www.w3.org/1999/xlink" x="0px" y="0px"
	 viewBox="0 0 1000 1000" style="enable-background:new 0 0 1000 1000;" xml:space="preserve">
<g>
	<path d="M502.9,525.2c-3.4,0-6.7-0.7-9.9-2l-368.4-159c-9.2-4-15.1-13-15.1-23c0-4.6,1.4-16.1,14.6-22.9c1.1-0.6,2.5-1.2,4.3-2
		c2.9-1.3,6.9-3,12.3-5.3c9.7-4,23.8-9.8,42.1-17.1c30.6-12.3,73.3-29.1,126.8-50.1c91.1-35.7,183.3-71.5,184.3-71.9
		c5.9-2.3,12.5-2.3,18.4,0.1l360.6,146c9.3,3.8,15.5,12.7,15.6,22.8c0.2,10-5.7,19.2-14.9,23.3L513,523
		C509.7,524.5,506.3,525.2,502.9,525.2z M198.3,341.5l304.4,131.4l296.5-130.7L502.7,222.1C403.2,260.7,270.6,312.6,198.3,341.5z"/>
</g>
<g>
	<path d="M502.9,840.6c-3.2,0-6.5-0.6-9.5-1.9L117,683.9c-12.8-5.3-18.9-19.9-13.6-32.6c5.3-12.8,19.9-18.9,32.6-13.6l366.8,150.9
		l361.1-150.9c12.7-5.3,27.4,0.7,32.7,13.4c5.3,12.7-0.7,27.4-13.4,32.7L512.5,838.7C509.4,840,506.1,840.6,502.9,840.6z"/>
</g>
<g>
	<path d="M502.9,685.8c-3.2,0-6.5-0.6-9.5-1.9L117,529c-12.8-5.3-18.9-19.9-13.6-32.6c5.3-12.8,19.9-18.9,32.6-13.6l366.8,150.9
		l361.1-150.9c12.7-5.3,27.4,0.7,32.7,13.4c5.3,12.7-0.7,27.4-13.4,32.7L512.5,683.8C509.4,685.1,506.1,685.8,502.9,685.8z"/>
</g>
</svg>
